<svg width="200" height="181" viewBox="0 0 200 181" fill="none" xmlns="http://www.w3.org/2000/svg">
<path d="M81.6735 75.8247C90.8529 59.2573 84.8441 38.3962 68.2525 29.2302C51.6608 20.0642 30.7691 26.0642 21.5896 42.6316C12.4102 59.199 18.419 80.0601 35.0107 89.2261C51.6023 98.3921 72.494 92.3921 81.6735 75.8247Z" fill="#F9D361"/>
<path d="M76.1146 72.7538C83.5955 59.252 78.6986 42.251 65.177 34.781C51.6554 27.3111 34.6296 32.2008 27.1486 45.7026C19.6677 59.2044 24.5647 76.2054 38.0862 83.6753C51.6078 91.1453 68.6337 86.2555 76.1146 72.7538Z" fill="white"/>
<path d="M62.0465 40.3573C61.641 40.2223 61.5058 39.6824 61.7761 39.2775L63.5334 36.1731C63.6686 35.7682 64.2092 35.6332 64.6148 35.9031C65.0203 36.0381 65.1554 36.578 64.8851 36.9829L63.1279 40.0873C62.8575 40.3573 62.452 40.4922 62.0465 40.3573Z" fill="#130F01"/>
<path d="M38.6617 82.6041C38.2562 82.4691 38.121 81.9292 38.3914 81.5243L40.1486 78.4199C40.2838 78.015 40.8245 77.88 41.23 78.15C41.6355 78.2849 41.7707 78.8248 41.5003 79.2298L39.7431 82.3342C39.4728 82.7391 39.0672 82.8741 38.6617 82.6041Z" fill="#130F01"/>
<path d="M70.5625 69.6466C70.6977 69.2417 71.2384 69.1067 71.6439 69.3767L74.7529 71.1313C75.1584 71.2663 75.2936 71.8062 75.0232 72.2111C74.888 72.616 74.3474 72.751 73.9418 72.481L70.8329 70.7264C70.5626 70.4564 70.4274 70.0515 70.5625 69.6466Z" fill="#130F01"/>
<path d="M28.1185 46.2961C28.2536 45.8912 28.7943 45.7562 29.1998 46.0262L32.3088 47.7808C32.7143 47.9158 32.8495 48.4557 32.5791 48.8606C32.444 49.2656 31.9033 49.4005 31.4977 49.1306L28.3888 47.3759C28.1185 47.2409 27.9833 46.7011 28.1185 46.2961Z" fill="#130F01"/>
<path d="M73.4009 52.9098C73.2657 52.5049 73.5361 52.1 73.9416 51.965L75.6988 51.4251C76.1043 51.2902 76.5098 51.5601 76.645 51.965C76.7802 52.3699 76.5098 52.7749 76.1043 52.9098L74.3471 53.4497C73.9416 53.5847 73.4009 53.3148 73.4009 52.9098Z" fill="#130F01"/>
<path d="M26.6316 66.4072C26.4964 66.0023 26.7668 65.5974 27.1723 65.4624L29.335 64.7876C29.7405 64.6526 30.1461 64.9225 30.2812 65.3274C30.4164 65.7324 30.1461 66.1373 29.7405 66.2723L27.5778 66.9471C27.1723 67.0821 26.7668 66.8122 26.6316 66.4072Z" fill="#130F01"/>
<path d="M57.8564 80.9843C58.2619 80.8494 58.6674 81.1193 58.8026 81.5242L59.3432 83.2789C59.4784 83.6838 59.2081 84.0887 58.8026 84.2237C58.3971 84.3587 57.9915 84.0887 57.8564 83.6838L57.3157 81.9291C57.3157 81.5242 57.4508 81.1193 57.8564 80.9843Z" fill="#FD4932"/>
<path d="M44.339 34.2834C44.7445 34.1484 45.1501 34.4184 45.2852 34.8233L45.9611 36.9829C46.0963 37.3878 45.8259 37.7927 45.4204 37.9277C45.0149 38.0627 44.6094 37.7927 44.4742 37.3878L43.7983 35.2282C43.7983 34.8233 43.9335 34.4184 44.339 34.2834Z" fill="#130F01"/>
<path d="M51.7736 59.1185C51.3681 59.2535 50.8274 58.9835 50.6922 58.5786L46.7722 44.6763C46.6371 44.2714 46.9074 43.7315 47.3129 43.5965C47.7184 43.4615 48.2591 43.7315 48.3943 44.1364L52.3143 58.0387C52.4494 58.5786 52.1791 58.9835 51.7736 59.1185Z" fill="#130F01"/>
<path d="M51.2327 59.9283C51.0975 59.5234 51.3678 58.9835 51.7734 58.8485L63.3981 55.4742C63.8036 55.3392 64.3443 55.6092 64.4795 56.0141C64.6147 56.419 64.3443 56.9589 63.9388 57.0939L52.1789 60.6032C51.7734 60.7382 51.2327 60.4682 51.2327 59.9283Z" fill="#130F01"/>
<path d="M54.2338 60.6662C55.0289 59.2312 54.5084 57.4243 53.0714 56.6304C51.6343 55.8365 49.8248 56.3562 49.0297 57.7912C48.2346 59.2261 48.7551 61.033 50.1921 61.8269C51.6292 62.6208 53.4387 62.1011 54.2338 60.6662Z" fill="#F9D361"/>
<path d="M161 45.9759C161 54.7992 150.647 63.8313 145 69C139.353 63.8313 129 54.7992 129 45.9759C129 37.1527 136.163 30 145 30C153.837 30 161 37.1527 161 45.9759Z" fill="#FFD864"/>
<path d="M145 36C143.22 36 141.48 36.5278 140 37.5168C138.52 38.5057 137.366 39.9113 136.685 41.5558C136.004 43.2004 135.826 45.01 136.173 46.7558C136.52 48.5016 137.377 50.1053 138.636 51.364C139.895 52.6226 141.498 53.4798 143.244 53.8271C144.99 54.1743 146.8 53.9961 148.444 53.3149C150.089 52.6337 151.494 51.4802 152.483 50.0001C153.472 48.5201 154 46.78 154 45C153.997 42.614 153.048 40.3267 151.36 38.6395C149.673 36.9524 147.386 36.0032 145 36Z" fill="white"/>
<path d="M175.185 180.595C186.234 180.595 195.191 171.652 195.191 160.619C195.191 149.587 186.234 140.643 175.185 140.643C164.136 140.643 155.18 149.587 155.18 160.619C155.18 171.652 164.136 180.595 175.185 180.595Z" fill="#390028"/>
<path d="M175.185 172.362C181.456 172.362 186.539 167.286 186.539 161.024C186.539 154.762 181.456 149.686 175.185 149.686C168.914 149.686 163.831 154.762 163.831 161.024C163.831 167.286 168.914 172.362 175.185 172.362Z" fill="white"/>
<path d="M147.34 132.275H174.239C185.458 132.275 194.515 141.318 194.515 152.521H147.205V132.275H147.34Z" fill="#F9CA3D"/>
<path d="M166.534 118.642L150.043 96.2364C148.556 94.3468 147.61 92.0522 146.934 89.7577L146.799 89.4877L151.8 88.273C152.206 88.138 152.476 87.7331 152.341 87.4631L149.503 75.9904C149.097 74.5056 147.61 73.6958 146.258 73.9657L141.257 75.1805C137.202 76.1253 134.634 80.3095 135.58 84.3587V84.4937L140.446 104.47L144.366 98.396V154.14L152.206 161.294L167.345 137.268C170.995 131.195 170.589 123.906 166.534 118.642Z" fill="#FFD864"/>
<path d="M147.07 89.6228L146.934 89.3528L151.936 88.1381C152.341 88.0031 152.612 87.5982 152.476 87.3282L149.638 75.8555C149.232 74.3707 147.745 73.5609 146.394 73.8309L141.392 75.0456C137.337 75.9904 134.769 80.1746 135.715 84.2238V84.3588L136.932 89.4878L146.529 89.3528C146.934 89.4878 146.934 89.6228 147.07 89.6228Z" fill="#FFD34D"/>
<path d="M91.9194 168.043H140.311C148.016 168.043 154.369 161.699 154.369 154.005V152.521H84.6201V160.754C84.6201 164.803 87.8642 168.043 91.9194 168.043Z" fill="#FFD864"/>
<path d="M108.545 152.521L28.659 145.502C27.9832 145.502 27.5776 144.827 27.5776 144.287C27.7128 143.207 27.7128 141.723 27.9832 140.778C30.1459 129.17 40.4189 120.532 52.5844 120.532H103.679C105.842 120.532 107.059 122.826 105.977 124.716L103.003 129.575C99.0835 136.054 100.165 144.422 105.572 149.686L108.545 152.521Z" fill="#FFD864"/>
<path d="M108.546 120.397H52.5846C40.6894 120.397 30.6867 128.63 28.1185 139.833C27.713 141.588 27.4426 143.477 27.4426 145.502L69.481 148.741C69.481 148.741 63.1279 146.042 63.1279 131.465C63.1279 120.262 78.6727 120.262 78.6727 120.262" fill="#F9CA3D"/>
<path opacity="0.25" d="M78.6725 120.397H50.692C43.2576 120.397 29.6052 128.63 27.9832 139.833C27.7128 141.588 27.5776 143.477 27.5776 145.502L52.9899 147.527C52.9899 147.527 48.9348 146.312 50.0161 131.465C50.9623 120.397 59.7485 120.262 59.7485 120.262" fill="#390028"/>
<path d="M26.4964 123.906H58.9376C61.1003 123.906 62.7224 122.421 62.7224 120.532V82.7391C62.7224 80.8495 60.9651 79.3647 58.9376 79.3647H26.4964C21.2247 79.3647 17.0343 83.279 17.0343 88.0031V115.268C16.8992 119.992 21.2247 123.906 26.4964 123.906Z" fill="#FFD864"/>
<path d="M26.4963 123.906H58.9375C61.1003 123.906 62.7223 119.452 62.7223 117.562C62.7223 117.562 17.0343 116.483 17.1695 117.157C18.1157 120.937 21.9005 123.906 26.4963 123.906Z" fill="#FFD34D"/>
<path d="M62.7222 91.1075V82.7391C62.7222 80.8495 60.965 79.3647 58.9374 79.3647H26.4962C21.2245 79.3647 17.0342 83.279 17.0342 88.0031V91.3774L62.7222 91.1075Z" fill="#FFD34D"/>
<path d="M62.0463 118.237H17.3045C16.899 118.237 16.6287 117.967 16.6287 117.562C16.6287 117.158 16.899 116.888 17.3045 116.888H62.0463C62.4519 116.888 62.7222 117.158 62.7222 117.562C62.7222 117.832 62.4519 118.237 62.0463 118.237Z" fill="#FFC928"/>
<path d="M62.0463 92.3223H17.3045C16.899 92.3223 16.6287 92.0523 16.6287 91.6474C16.6287 91.2425 16.899 90.9725 17.3045 90.9725H62.0463C62.4519 90.9725 62.7222 91.2425 62.7222 91.6474C62.7222 92.0523 62.4519 92.3223 62.0463 92.3223Z" fill="#FFC928"/>
<path d="M110.303 126.741C110.438 127.685 109.627 128.63 108.681 128.63L70.5622 128.225C67.0477 128.225 63.8036 125.661 62.5871 122.016L59.4781 113.243C58.1264 109.194 60.5595 104.875 64.3443 104.605L100.841 103.525C104.761 103.39 108.005 106.629 108.545 110.949L110.303 126.741Z" fill="#F9CA3D"/>
<path opacity="0.22" d="M100.841 103.525L64.3444 104.605C63.3982 104.605 62.452 105.01 61.7761 105.55L64.2092 112.568C65.5609 116.348 68.6699 118.777 72.1843 118.777L109.357 119.182L108.41 110.949C108.005 106.629 104.626 103.39 100.841 103.525Z" fill="#390028"/>
<path d="M157.613 120.937C157.478 120.397 157.207 119.857 157.072 119.452L144.636 94.6168C139.77 96.9114 137.472 102.715 139.5 107.709L142.338 114.863C143.961 118.912 144.772 123.366 144.772 127.685V134.839C144.772 144.557 136.932 152.386 127.199 152.386H108.546L55.4231 147.662V160.079H84.6202H108.681H136.256C141.392 160.079 148.016 155.355 151.665 148.471C155.315 141.723 157.207 133.354 158.018 128.765C158.559 126.336 158.424 123.501 157.613 120.937Z" fill="#FFD34D"/>
<path d="M151.98 88.3382C154.011 87.8431 154.838 84.0958 153.829 79.9683C152.82 75.8408 150.356 72.8962 148.325 73.3913C146.294 73.8864 145.467 77.6337 146.476 81.7612C147.485 85.8887 149.95 88.8333 151.98 88.3382Z" fill="#FFD98B"/>
<path opacity="0.39" d="M150.542 82.0639C151.702 81.7809 152.169 79.6145 151.585 77.2249C151 74.8353 149.586 73.1274 148.426 73.4104C147.265 73.6933 146.798 75.8598 147.383 78.2494C147.967 80.639 149.381 82.3468 150.542 82.0639Z" fill="white"/>
<path d="M137.202 85.0336L122.739 88.543C122.198 88.6779 121.657 88.273 121.522 87.7331L121.117 86.2484C120.981 85.7085 121.387 85.1686 121.928 85.0336L136.391 81.5243C136.932 81.3894 137.472 81.7943 137.607 82.3342L138.013 83.8189C138.148 84.3588 137.743 84.8987 137.202 85.0336Z" fill="#390028"/>
<path d="M138.824 87.0583L136.796 87.5982C135.985 87.8682 135.039 87.3283 134.904 86.3834L133.823 82.1993L137.337 81.3894L138.824 87.0583Z" fill="#390028"/>
<path d="M123.144 89.4878C122.063 89.7577 120.981 89.0829 120.711 88.0031L120.441 87.0583C120.17 85.9785 120.846 84.8987 121.928 84.6287C123.009 84.3588 124.09 85.0337 124.361 86.1134L124.631 87.0583C124.901 88.1381 124.226 89.2179 123.144 89.4878Z" fill="#390028"/>
<path d="M48.9349 180.595C59.9835 180.595 68.9403 171.652 68.9403 160.619C68.9403 149.587 59.9835 140.643 48.9349 140.643C37.8862 140.643 28.9294 149.587 28.9294 160.619C28.9294 171.652 37.8862 180.595 48.9349 180.595Z" fill="#390028"/>
<path d="M48.9347 172.362C55.2056 172.362 60.2892 167.286 60.2892 161.024C60.2892 154.762 55.2056 149.686 48.9347 149.686C42.6639 149.686 37.5803 154.762 37.5803 161.024C37.5803 167.286 42.6639 172.362 48.9347 172.362Z" fill="white"/>
<path d="M80.5649 165.748H54.4768C51.3678 165.748 48.7996 163.454 48.7996 160.484C48.7996 157.515 51.3678 155.22 54.4768 155.22H80.5649C83.6739 155.22 86.2421 157.515 86.2421 160.484C86.1069 163.454 83.6739 165.748 80.5649 165.748Z" fill="#F9CA3D"/>
<path d="M49.3404 166.558C52.6251 166.558 55.2879 163.899 55.2879 160.619C55.2879 157.339 52.6251 154.68 49.3404 154.68C46.0556 154.68 43.3928 157.339 43.3928 160.619C43.3928 163.899 46.0556 166.558 49.3404 166.558Z" fill="#390028"/>
<path d="M175.185 166.963C178.47 166.963 181.133 164.304 181.133 161.024C181.133 157.744 178.47 155.085 175.185 155.085C171.9 155.085 169.238 157.744 169.238 161.024C169.238 164.304 171.9 166.963 175.185 166.963Z" fill="#390028"/>
<path d="M136.932 77.745C136.932 76.6652 136.256 75.7204 135.445 75.0455L133.012 73.4259C131.93 72.751 130.714 72.751 129.632 73.2909L114.628 70.3215L102.057 53.9896L93.2712 67.487L105.031 81.3893L124.901 81.5243C127.199 82.6041 129.768 84.0888 130.443 84.0888C132.606 84.2238 134.499 82.6041 134.634 80.4445V79.9046L135.039 80.7145C135.174 80.8494 135.31 81.1194 135.58 81.1194C136.256 81.3893 136.932 80.8494 136.932 80.0396V77.745Z" fill="#F9A06E"/>
<path d="M111.925 65.4625L98.1375 76.1254L86.1072 63.5728L102.868 51.4252L112.06 63.1679C112.736 63.8428 112.601 64.9226 111.925 65.4625Z" fill="#F2B90D"/>
<path d="M105.57 24.4895C105.661 22.1805 103.921 20.2371 101.683 20.1489C99.4455 20.0607 97.5574 21.861 97.4661 24.17C97.3748 26.479 99.1149 28.4223 101.353 28.5106C103.59 28.5988 105.479 26.7985 105.57 24.4895Z" fill="#F9CA3D"/>
<path d="M102.868 22.6758C102.868 20.2462 100.435 18.0867 97.4615 18.0867L91.3788 17.9517C88.405 17.8167 86.1071 19.8413 86.1071 22.2709L86.3775 34.2835L84.3499 47.241C84.0795 48.9957 85.4312 50.4804 87.3236 50.8853L91.9195 51.5602C93.8119 51.8301 95.5691 50.7503 95.8395 48.9957L96.9208 42.382C97.056 42.382 97.1912 42.382 97.3264 42.382C100.706 41.8421 102.868 38.8726 101.922 35.9032L102.733 25.9152L102.868 22.6758Z" fill="#FFAC79"/>
<path d="M98.4077 37.7927C98.4077 37.7927 99.3539 37.5228 99.7594 38.1976Z" fill="#FFAC79"/>
<path d="M99.8947 38.6026C99.7595 38.6026 99.6243 38.6026 99.6243 38.4676C99.2188 37.9277 98.543 38.0627 98.543 38.1977C98.4078 38.1977 98.1375 38.1977 98.1375 37.9277C98.1375 37.7928 98.1374 37.5228 98.4078 37.5228C98.4078 37.5228 99.4892 37.2529 100.165 38.0627C100.3 38.1977 100.3 38.4676 100.03 38.4676C100.03 38.6026 99.8947 38.6026 99.8947 38.6026Z" fill="#FF755F"/>
<path d="M95.4339 28.2097C95.7042 28.3446 95.9746 28.2097 96.2449 28.2097C96.5153 28.2097 96.9208 28.0747 97.1911 28.0747C97.4615 28.0747 97.7318 28.0747 98.1373 27.9397C98.4077 27.9397 98.8132 27.9397 98.9484 27.8047C99.2187 27.6698 99.2187 27.3998 98.9484 27.1299C98.678 26.8599 98.0022 26.59 97.056 26.59C96.1098 26.7249 95.5691 27.1299 95.2987 27.5348C95.0284 27.8047 95.1636 28.0747 95.4339 28.2097Z" fill="#390028"/>
<path d="M100.976 29.4244C100.976 30.0993 101.517 30.5042 102.057 30.5042C102.463 30.5042 102.733 30.7742 102.733 31.1791V31.3141C102.733 32.1239 102.192 32.6638 101.381 32.7988H100.3" fill="#FFAC79"/>
<path d="M100.3 33.0687C100.165 33.0687 100.03 32.9338 99.8948 32.7988C99.8948 32.6638 100.03 32.3939 100.165 32.3939H101.246C101.517 32.3939 101.787 32.2589 102.058 32.1239C102.193 31.854 102.328 31.584 102.328 31.3141V31.1791C102.328 31.0441 102.328 31.0441 102.193 30.9092C102.193 30.9092 102.058 30.7742 101.922 30.7742C101.111 30.7742 100.435 30.0993 100.435 29.4245C100.435 29.2895 100.571 29.0195 100.706 29.0195C100.841 29.0195 100.976 29.1545 101.111 29.2895C101.111 29.6944 101.517 30.0993 101.922 30.0993C102.193 30.0993 102.463 30.2343 102.598 30.3693C102.733 30.5042 102.869 30.7742 102.869 31.0441V31.1791C102.869 31.584 102.733 32.1239 102.328 32.3939C102.058 32.6638 101.517 32.9338 101.111 32.9338L100.3 33.0687Z" fill="#FF755F"/>
<mask id="mask0_76_538" style="mask-type:luminance" maskUnits="userSpaceOnUse" x="94" y="28" width="6" height="4">
<path d="M99.2187 30.7742C99.0836 30.0993 98.6781 29.0195 97.1912 28.8845C96.9208 28.8845 96.7857 28.8845 96.5153 28.8845C95.5691 29.0195 94.8932 29.8293 94.6229 30.5042C94.3526 31.0441 94.6229 31.584 95.1636 31.719C96.6505 31.9889 98.1374 31.719 98.8132 31.584C99.0836 31.584 99.2187 31.3141 99.2187 31.0441C99.2187 30.9091 99.2187 30.9091 99.2187 30.7742Z" fill="white"/>
</mask>
<g mask="url(#mask0_76_538)">
<path d="M99.2187 30.7742C99.0836 30.0993 98.6781 29.0195 97.1912 28.8845C96.9208 28.8845 96.7857 28.8845 96.5153 28.8845C95.5691 29.0195 94.8932 29.8293 94.6229 30.5042C94.3526 31.0441 94.6229 31.584 95.1636 31.719C96.6505 31.9889 98.1374 31.719 98.8132 31.584C99.0836 31.584 99.2187 31.3141 99.2187 31.0441C99.2187 30.9091 99.2187 30.9091 99.2187 30.7742Z" fill="white"/>
</g>
<mask id="mask1_76_538" style="mask-type:luminance" maskUnits="userSpaceOnUse" x="94" y="28" width="6" height="4">
<path d="M99.2255 30.7263C99.0616 30.0712 98.6093 29.0344 97.1106 28.9916C96.8391 29.0079 96.7034 29.016 96.4319 29.0324C95.4873 29.2222 94.8424 30.059 94.5991 30.7386C94.3502 31.2856 94.6442 31.7999 95.1928 31.8999C96.6971 32.0754 98.179 31.7203 98.8521 31.5468C99.1235 31.5305 99.248 31.257 99.2367 30.9917C99.2311 30.859 99.2311 30.859 99.2255 30.7263Z" fill="white"/>
</mask>
<g mask="url(#mask1_76_538)">
<path d="M98.8794 32.2511C99.778 32.2013 100.476 31.5009 100.438 30.6866C100.401 29.8723 99.642 29.2526 98.7435 29.3023C97.8449 29.3521 97.1469 30.0526 97.1844 30.8668C97.222 31.6811 97.9808 32.3009 98.8794 32.2511Z" fill="#390028"/>
</g>
<path d="M98.8135 35.6331C98.8135 35.6331 96.5155 36.0381 96.3804 34.5533Z" fill="#FFAC79"/>
<path d="M98.2726 36.0381C97.7319 36.0381 97.0561 35.9031 96.6506 35.6332C96.3802 35.3632 96.1099 35.0933 96.1099 34.6884C96.1099 34.5534 96.245 34.2834 96.3802 34.2834C96.5154 34.2834 96.7857 34.4184 96.7857 34.5534C96.7857 34.8233 96.9209 34.9583 97.0561 35.0933C97.4616 35.4982 98.543 35.3632 98.8133 35.3632C98.9485 35.3632 99.2188 35.4982 99.2188 35.6332C99.2188 35.7682 99.0836 36.0381 98.9485 36.0381C98.8133 35.9031 98.543 36.0381 98.2726 36.0381Z" fill="#FF755F"/>
<path opacity="0.41" d="M90.703 39.8175C90.703 39.8175 92.325 42.7869 96.7857 42.517L96.3802 44.9465C96.1098 44.9465 90.4326 44.9465 90.703 39.8175Z" fill="#FF755F"/>
<path d="M84.0795 34.0136L85.9719 37.3879L88.6754 31.3141C89.0809 30.3693 87.3237 32.1239 86.9181 31.3141L86.5126 30.5042H86.3775C84.3499 30.2343 82.9982 32.3939 84.0795 34.0136Z" fill="#390028"/>
<path d="M85.0257 34.1485C89.216 35.3633 90.027 29.4244 90.9732 27.3998C92.0546 25.1053 94.8932 24.0255 97.1911 25.1053C100.706 26.59 103.004 26.32 105.301 26.1851L105.572 22.5408C105.977 17.6817 102.328 13.4975 97.5966 13.0926L88.9457 12.4177C84.0795 12.0128 79.8892 15.6571 79.4836 20.3812C79.4836 20.3812 79.4837 25.6452 79.6188 28.0747C79.8892 33.3387 84.8905 34.1485 85.0257 34.1485Z" fill="#F9CA3D"/>
<path d="M105.707 22.5407C106.113 17.6817 102.463 13.4975 97.732 13.0926L89.081 12.4177C86.2424 12.1478 83.539 13.3625 81.7817 15.3871C83.4038 14.1724 85.5665 13.4975 87.8645 13.6325L96.5155 14.3073C101.382 14.7123 104.896 18.8965 104.491 23.7555L104.22 26.32C104.626 26.32 105.031 26.32 105.437 26.185L105.707 22.5407Z" fill="#FFD864"/>
<path d="M105.437 26.5899L98.2727 26.32C97.0561 26.32 96.2451 25.3752 96.2451 24.1604L107.059 24.5653V25.1052C107.059 25.9151 106.383 26.5899 105.437 26.5899Z" fill="#390028"/>
<path d="M85.0257 30.6392C83.674 30.6392 82.7278 29.5594 82.7278 28.3446C82.7278 27.8047 82.9981 27.1298 83.4036 26.7249C83.8092 26.32 84.485 26.05 85.0257 26.05C86.2423 26.05 87.3236 27.1298 87.1885 28.3446C87.3236 29.6943 86.2423 30.6392 85.0257 30.6392ZM85.0257 27.1298C84.7554 27.1298 84.3498 27.2648 84.2147 27.5348C83.9443 27.8047 83.8092 28.0747 83.8092 28.3446C83.8092 29.0195 84.3498 29.5594 85.0257 29.6943C85.7016 29.6943 86.2423 29.1544 86.3774 28.4796C86.3774 27.6697 85.8367 27.1298 85.0257 27.1298Z" fill="white"/>
<path d="M105.031 55.6093C104.896 54.9345 104.626 54.2596 104.355 53.5847C103.004 50.4803 100.165 48.5907 97.3265 47.6459C94.7582 46.836 91.9196 46.7011 89.2162 46.7011C87.1886 46.7011 85.2962 46.0262 83.2686 46.1612C79.2135 46.4311 75.0232 49.1306 73.5363 53.0448C72.9956 54.6645 72.7252 56.4192 72.5901 58.0389C71.779 67.892 67.9942 85.5735 67.5887 95.5616C67.3184 101.365 71.5087 104.47 71.3735 110.274V105.415L104.761 107.304L105.031 100.421C105.302 92.7272 105.437 84.8987 105.572 77.2052C105.572 73.2909 105.707 69.5116 105.707 65.5974C105.572 62.358 105.842 58.8487 105.031 55.6093Z" fill="#F4C433"/>
<path opacity="0.27" d="M90.4327 83.549C88.1348 81.6593 80.2948 74.1008 78.4024 68.027L77.8617 68.4319C77.8617 68.7018 77.8617 68.9718 77.7266 69.2417C78.2672 74.5057 82.8631 79.7697 85.7017 82.6042C86.9182 83.9539 88.8106 84.2238 90.4327 83.549Z" fill="#353535"/>
<path opacity="0.27" d="M102.868 73.1559L103.815 72.2111L92.4602 60.3334L102.868 73.1559Z" fill="#353535"/>
<path d="M131.39 86.5184L130.308 83.549L130.173 82.8741C129.903 81.7943 129.227 80.9845 128.145 80.5796L125.442 79.4998C124.225 79.0948 123.009 79.2298 122.198 80.0397H120.846L106.923 78.5549L102.733 73.5609L91.5139 83.0091L95.1636 87.0583C96.7856 88.813 99.0835 89.7578 101.517 89.7578L119.63 89.0829C121.928 89.7578 124.361 90.4327 125.036 90.2977C127.199 89.8928 128.686 88.0031 128.416 85.8435V85.3036L128.821 85.7086L128.686 85.9785L130.038 87.4632C130.308 87.8682 130.984 87.8681 131.254 87.5982C131.39 87.3283 131.525 86.9233 131.39 86.5184Z" fill="#FFAC79"/>
<path opacity="0.41" d="M106.923 78.4199L101.517 79.2298C101.517 79.2298 105.977 77.0702 105.842 77.2052C105.842 77.3401 106.923 78.5549 106.923 78.4199Z" fill="#FF755F"/>
<path d="M121.387 98.666H120.17V98.5311L67.0478 96.5065V102.85C66.7774 112.298 74.0767 119.992 84.7553 119.317L114.358 118.642L112.871 148.471L123.685 147.392L131.795 109.464C132.065 103.66 127.334 98.666 121.387 98.666Z" fill="#390028"/>
<path d="M135.715 157.785C135.85 153.87 132.877 150.496 128.957 150.226L124.09 149.956L124.361 145.232L113.006 144.692L112.466 156.57L123.82 157.11L135.715 157.785Z" fill="#F4C433"/>
<path d="M112.46 155.477L112.374 157.229L135.73 158.375L135.816 156.623L112.46 155.477Z" fill="#F7EEE6"/>
<path d="M124.631 150.766C124.496 150.766 124.226 150.631 124.09 150.496C123.955 150.361 123.955 150.091 124.09 149.821C124.766 148.606 125.442 148.066 125.983 147.932C126.253 147.932 126.523 147.932 126.929 148.336C127.199 148.741 127.199 149.146 127.199 149.281C126.929 149.956 126.118 150.361 124.631 150.766ZM125.983 148.606C125.712 148.606 125.172 149.011 124.631 149.956C125.712 149.686 126.253 149.281 126.388 149.146C126.388 149.146 126.388 149.011 126.253 148.876C126.253 148.606 126.118 148.606 125.983 148.606Z" fill="#0A0A0A"/>
<path d="M122.333 151.171C121.792 151.171 121.387 151.036 121.116 150.766C120.846 150.631 120.711 150.226 120.711 149.686C120.711 149.146 121.116 148.876 121.252 148.741C121.927 148.471 122.874 148.741 124.225 149.686C124.496 149.821 124.631 150.226 124.496 150.496C124.361 150.631 124.225 150.766 124.09 150.766C123.414 151.036 122.874 151.171 122.333 151.171ZM121.927 149.281C121.792 149.281 121.792 149.281 121.657 149.281C121.657 149.281 121.522 149.416 121.387 149.686C121.387 149.956 121.387 150.091 121.522 150.226C121.792 150.496 122.739 150.496 123.955 150.091C123.009 149.551 122.198 149.281 121.927 149.281Z" fill="#0A0A0A"/>
<path d="M123.009 153.33C122.874 153.33 122.739 153.195 122.739 153.195C122.603 153.06 122.739 152.791 122.874 152.791C124.09 152.251 123.955 150.496 123.955 150.496C123.955 150.361 124.09 150.091 124.226 150.091C124.361 150.091 124.631 150.226 124.631 150.361C124.631 150.496 124.766 152.521 123.144 153.33C123.144 153.33 123.144 153.33 123.009 153.33Z" fill="#0A0A0A"/>
<path d="M116.521 153.195C116.386 153.195 116.386 153.195 116.521 153.195C115.71 153.195 115.169 152.926 114.764 152.386C114.358 151.846 114.088 151.306 114.088 150.631C114.088 149.281 115.304 148.336 116.656 148.336C117.332 148.336 117.872 148.606 118.278 149.146C118.683 149.686 118.954 150.226 118.954 150.901C118.819 152.251 117.737 153.195 116.521 153.195ZM116.521 149.011C115.575 149.011 114.764 149.686 114.764 150.631C114.764 151.036 114.899 151.576 115.169 151.846C115.439 152.251 115.98 152.386 116.386 152.386C117.332 152.386 118.143 151.711 118.278 150.766C118.278 150.361 118.143 149.821 117.872 149.551C117.467 149.281 117.061 149.146 116.521 149.011Z" fill="#0A0A0A"/>
<path d="M116.521 69.7816L120.576 68.8368C124.225 67.892 128.01 69.9166 128.821 73.291C129.632 76.6653 127.334 80.0397 123.55 80.9845L120.846 81.6593C118.954 82.0643 117.196 81.1195 116.791 79.4998L115.034 72.2112C114.763 71.1314 115.439 70.0516 116.521 69.7816Z" fill="#390028"/>
<path d="M140.987 83.1441C140.717 83.1441 140.581 83.0091 140.446 82.7392L135.85 74.9107C135.039 73.561 133.417 72.8861 131.93 73.156L125.037 74.9107C124.631 75.0457 124.361 74.7757 124.226 74.3708C124.09 73.9659 124.361 73.6959 124.766 73.561L131.66 71.8063C133.823 71.2664 135.986 72.2112 137.067 74.1009L141.663 81.9293C141.798 82.1993 141.798 82.6042 141.392 82.8742C141.257 83.1441 141.122 83.1441 140.987 83.1441Z" fill="#390028"/>
</svg>
