<svg width="200" height="181" viewBox="0 0 200 181" fill="none" xmlns="http://www.w3.org/2000/svg">
<g clip-path="url(#clip0_76_713)">
<path d="M83.4145 117.787C82.2574 117.787 81.245 116.923 81.245 115.771L78.063 25.199C78.063 24.047 76.1828 23.903 72.5669 23.759H71.5545C70.3974 23.759 69.385 22.7511 69.385 21.5991C69.385 20.4472 70.3974 19.4392 71.5545 19.4392H72.4223C76.0382 19.4392 81.9681 19.5832 82.2574 25.055L85.4393 115.627C85.584 116.779 84.7162 117.787 83.4145 117.787Z" fill="#F4C433"/>
<path d="M54.1984 151.481L106.7 151.913C108.291 151.913 109.593 150.761 109.738 149.178L117.837 50.3979L44.6526 49.8219L51.3057 148.89C51.4504 150.329 52.6074 151.481 54.1984 151.481Z" fill="#F5C538"/>
<path d="M47.1113 85.8203L48.7023 109.579H112.92L114.945 85.8203H47.1113Z" fill="#F8F8EE"/>
<path d="M44.6526 49.8219L117.837 50.3979V50.9739L52.1735 50.5419L58.8267 149.609C58.8267 150.473 59.2606 151.193 59.9838 151.625H54.1984C52.7521 151.625 51.4504 150.473 51.3057 148.89L44.6526 49.8219Z" fill="#F2B90D"/>
<path opacity="0.46" d="M117.114 57.1656L45.0864 56.5896L45.3757 60.1894L116.825 60.4774L117.114 57.1656Z" fill="#390028"/>
<path d="M44.2188 49.8219L44.6526 57.1656H117.693L118.271 50.2539L44.2188 49.8219Z" fill="#0E0E06"/>
<path d="M156.455 70.557H122.321C119.862 70.557 117.837 72.5729 117.837 75.0208V79.7726C117.837 82.2205 119.862 84.2364 122.321 84.2364H156.455C158.913 84.2364 160.938 82.2205 160.938 79.7726V75.0208C160.938 72.5729 159.058 70.557 156.455 70.557Z" fill="#F9CA3D"/>
<path d="M100.915 92.732L113.498 158.681H164.554L177.427 92.3L100.915 92.732Z" fill="#F9CA3D"/>
<g opacity="0.11">
<path d="M177.426 92.444V92.3L100.915 92.732L113.498 158.681H124.924L112.196 92.732L177.426 92.444Z" fill="#390028"/>
</g>
<path d="M117.837 80.3485H160.938L177.426 92.732H100.626L117.693 80.6365" fill="#FFD864"/>
<path d="M150.958 105.547C141.268 98.7797 127.962 101.084 121.164 110.731C114.366 120.379 116.68 133.626 126.371 140.394C136.061 147.162 149.367 144.858 156.165 135.21C162.963 125.563 160.649 112.315 150.958 105.547ZM129.119 136.506C121.598 131.178 119.862 120.955 125.069 113.467C130.42 105.979 140.689 104.251 148.21 109.435C155.731 114.763 157.467 124.987 152.26 132.474C146.909 139.962 136.64 141.834 129.119 136.506Z" fill="#F9D361"/>
<path d="M138.665 145.002C134.181 145.002 129.697 143.562 125.937 140.97C121.164 137.514 117.837 132.474 116.825 126.715C115.813 120.955 117.114 115.051 120.585 110.299C124.057 105.547 129.119 102.236 134.904 101.228C140.69 100.22 146.619 101.516 151.392 104.971C161.372 112.027 163.831 125.707 156.744 135.642C153.273 140.394 148.21 143.706 142.425 144.714C141.123 144.858 139.822 145.002 138.665 145.002ZM138.665 102.38C137.508 102.38 136.206 102.524 135.049 102.668C129.553 103.676 124.78 106.555 121.598 111.163C118.416 115.627 117.114 121.099 118.127 126.571C119.139 132.042 122.032 136.794 126.66 139.962C131.144 143.13 136.64 144.426 142.136 143.418C147.632 142.41 152.405 139.53 155.587 134.922C162.095 125.563 159.926 112.747 150.525 106.267C147.053 103.676 142.859 102.38 138.665 102.38ZM138.665 140.25C135.193 140.25 131.722 139.242 128.685 137.082C124.924 134.49 122.321 130.458 121.598 125.851C120.875 121.243 121.887 116.779 124.491 112.891C129.987 105.115 140.834 103.244 148.644 108.715C156.455 114.187 158.335 124.987 152.839 132.762C149.512 137.658 144.016 140.25 138.665 140.25ZM129.553 135.93C136.784 140.97 146.619 139.242 151.682 132.042C156.744 124.843 155.008 115.051 147.777 110.011C140.545 104.971 130.71 106.699 125.648 113.899C123.189 117.355 122.321 121.531 123.044 125.707C123.767 129.882 126.082 133.482 129.553 135.93Z" fill="#FFD864"/>
<path d="M148.21 109.435C140.689 104.108 130.276 105.979 125.069 113.467C119.717 120.955 121.598 131.322 129.119 136.506C136.64 141.69 147.053 139.962 152.26 132.474C157.467 124.987 155.731 114.763 148.21 109.435ZM140.545 129.306C140.255 129.738 139.532 129.882 139.098 129.594L132.301 124.843C131.867 124.555 131.722 123.835 132.011 123.403L136.784 116.635C137.074 116.203 137.797 116.059 138.231 116.347L145.028 121.099C145.462 121.387 145.607 122.107 145.318 122.539L140.545 129.306Z" fill="#F9D361"/>
<path d="M138.665 140.25C135.193 140.25 131.722 139.242 128.685 137.082C124.924 134.49 122.321 130.458 121.598 125.851C120.875 121.243 121.887 116.779 124.491 112.891C129.987 105.116 140.834 103.244 148.644 108.715C156.455 114.187 158.335 124.987 152.839 132.762C149.512 137.658 144.016 140.25 138.665 140.25ZM138.665 107.131C133.603 107.131 128.685 109.435 125.648 113.899C123.189 117.355 122.321 121.531 123.044 125.707C123.767 129.882 126.082 133.482 129.553 135.93C136.784 140.97 146.62 139.242 151.682 132.042C156.744 124.843 155.008 115.051 147.777 110.011C145.029 108.139 141.847 107.131 138.665 107.131ZM139.677 130.458C139.388 130.458 138.954 130.314 138.665 130.17L131.867 125.419C131.144 124.843 130.854 123.835 131.433 122.971L136.206 116.203C136.784 115.483 137.797 115.195 138.665 115.771L145.462 120.523C145.896 120.811 146.041 121.243 146.186 121.675C146.33 122.107 146.186 122.539 145.896 122.971L141.123 129.738C140.69 130.17 140.256 130.458 139.677 130.458ZM137.652 116.923C137.508 116.923 137.508 116.923 137.363 117.067L132.59 123.835C132.445 123.979 132.59 124.123 132.59 124.267L139.388 129.018C139.533 129.162 139.677 129.018 139.822 129.018L144.595 122.251C144.595 122.107 144.595 122.107 144.595 122.107C144.595 122.107 144.595 121.963 144.45 121.963L137.652 117.211C137.797 116.923 137.652 116.923 137.652 116.923Z" fill="#FFD864"/>
<path d="M87.7534 161.273L6.90311 161.705C5.45677 161.705 4.44434 160.553 4.44434 159.257V157.241C4.44434 155.801 5.60141 154.793 6.90311 154.793L87.7534 154.361C89.1997 154.361 90.2121 155.513 90.2121 156.809V158.825C90.2121 160.265 89.1997 161.273 87.7534 161.273Z" fill="#470B1B"/>
<path d="M85.5838 154.361L69.5295 154.505C69.2402 154.505 68.9509 154.649 68.6617 154.793L63.021 158.249C62.5871 158.537 61.8639 158.537 61.2854 158.249L54.1983 154.793C53.909 154.649 53.6198 154.649 53.4751 154.649L9.36186 154.937C8.49406 154.937 7.91553 154.505 7.91553 153.929V150.186C7.91553 149.61 8.49406 149.034 9.36186 149.034L85.7284 148.602C86.5962 148.602 87.1748 149.034 87.1748 149.61V153.353C87.0301 153.929 86.307 154.361 85.5838 154.361Z" fill="#FFD98B"/>
<path d="M84.4268 166.169L10.2297 166.601C9.65119 166.601 9.21729 166.169 9.21729 165.593V162.569C9.21729 161.993 9.65119 161.561 10.2297 161.561L84.5714 161.129C85.15 161.129 85.5839 161.561 85.5839 162.137V165.161C85.5839 165.737 85.15 166.169 84.4268 166.169Z" fill="#F94A3D"/>
<path opacity="0.74" d="M84.8608 162.569L9.65129 163.001C9.36202 163.001 9.07275 162.713 9.07275 162.425V162.137C9.07275 161.849 9.36202 161.561 9.65129 161.561L84.8608 161.129C85.1501 161.129 85.4393 161.417 85.4393 161.705V161.993C85.584 162.281 85.2947 162.569 84.8608 162.569Z" fill="#EC6565"/>
<path d="M74.5917 180.568L20.4987 180.856C13.7009 180.856 8.20483 176.968 8.20483 172.073V165.881L86.8856 165.593V171.785C86.8856 176.536 81.3895 180.568 74.5917 180.568Z" fill="#FFAC79"/>
<path opacity="0.25" d="M86.7409 165.449H82.6912C81.968 169.769 76.7612 173.225 70.542 173.225L25.127 173.369C18.9077 173.369 13.7009 170.057 12.9777 165.737H8.20483V171.929C8.20483 176.824 13.7009 180.856 20.4987 180.712L74.5917 180.424C81.3895 180.424 86.8856 176.392 86.7409 171.497V165.449Z" fill="#F97762"/>
<path d="M89.0552 149.322L5.45692 149.754C5.31229 133.626 19.3418 120.379 36.5532 120.235L57.3804 120.091C74.7365 120.091 88.9106 133.05 89.0552 149.322Z" fill="#FFB6AF"/>
<path opacity="0.08" d="M89.0552 149.322L5.45692 149.754C5.31229 133.626 19.3418 120.379 36.5532 120.235L57.3804 120.091C74.7365 120.091 88.9106 133.05 89.0552 149.322Z" fill="#FFF6F7"/>
<path d="M89.0552 149.322L5.45692 149.754C5.31229 133.626 19.3418 120.379 36.5532 120.235L57.3804 120.091C74.7365 120.091 88.9106 133.05 89.0552 149.322Z" fill="#FFAC79"/>
<path opacity="0.25" d="M69.8188 122.395L69.9634 122.539C78.3522 128.154 74.3024 141.258 64.1781 141.402L26.7179 141.69C19.3416 141.69 15.0026 133.194 19.7755 127.435C21.5111 125.419 23.536 123.547 25.8501 122.251C13.8455 126.427 5.45679 137.226 5.45679 149.898L88.9104 149.466C88.9104 137.226 81.1002 126.859 69.8188 122.395Z" fill="#F97762"/>
<path d="M45.2312 128.586C44.3634 128.586 43.4956 128.442 43.4956 127.866C43.4956 127.147 44.508 126.859 45.5205 126.859C46.5329 126.859 47.69 127.003 47.69 127.578C47.69 128.298 46.6775 128.586 45.6651 128.586C45.5205 128.442 45.3758 128.586 45.2312 128.586ZM44.3634 127.722C44.6527 127.722 45.0866 127.866 45.6651 127.866C46.2436 127.866 46.6775 127.722 46.8222 127.578C46.5329 127.578 46.099 127.434 45.5205 127.434C45.0866 127.434 44.6527 127.578 44.3634 127.722Z" fill="#F8F8EE"/>
<path d="M58.2483 131.898C57.3805 131.898 56.5127 131.754 56.5127 131.178C56.5127 130.89 56.6573 130.602 57.2359 130.458C57.5251 130.314 58.1037 130.17 58.5376 130.17C58.9715 130.17 59.55 130.17 59.8393 130.314C60.4178 130.458 60.7071 130.746 60.7071 131.034C60.7071 131.754 59.6946 132.042 58.6822 132.042C58.3929 131.898 58.2483 131.898 58.2483 131.898ZM57.2359 131.034C57.5251 131.034 57.959 131.178 58.5376 131.178C59.1161 131.178 59.55 131.034 59.6946 130.89C59.4054 130.89 58.9715 130.746 58.3929 130.746C57.959 130.89 57.5251 131.034 57.2359 131.034Z" fill="#F8F8EE"/>
<path d="M54.9216 125.275C54.0538 125.275 53.186 125.131 53.186 124.555C53.186 124.267 53.3307 123.979 53.9092 123.835C54.1985 123.691 54.777 123.547 55.2109 123.547C56.2233 123.547 57.3804 123.691 57.3804 124.267C57.3804 124.555 57.2358 124.843 56.6572 124.987C56.368 125.131 55.7894 125.275 55.3555 125.275C55.0663 125.275 54.9216 125.275 54.9216 125.275ZM53.9092 124.411C54.1985 124.411 54.6324 124.555 55.2109 124.555C55.7894 124.555 56.2233 124.411 56.368 124.267C56.0787 124.267 55.6448 124.123 55.0663 124.123C54.6324 124.123 54.1985 124.267 53.9092 124.411Z" fill="#F8F8EE"/>
<path d="M33.6604 132.186C32.7926 132.186 31.9248 132.042 31.9248 131.466C31.9248 131.178 32.0694 130.89 32.648 130.746C32.9372 130.602 33.5158 130.458 33.9497 130.458C34.3836 130.458 34.9621 130.458 35.2514 130.602C35.8299 130.746 36.1192 131.034 36.1192 131.322C36.1192 131.61 35.9746 131.898 35.396 132.042C35.1067 132.186 34.5282 132.33 34.0943 132.33C33.9497 132.186 33.805 132.186 33.6604 132.186ZM32.7926 131.322C33.0819 131.322 33.5158 131.466 34.0943 131.466C34.6728 131.466 35.1067 131.322 35.2514 131.178C34.9621 131.178 34.5282 131.034 33.9497 131.034C33.3711 131.034 32.9372 131.178 32.7926 131.322Z" fill="#F8F8EE"/>
<path d="M34.239 125.131C33.3712 125.131 32.5034 124.987 32.5034 124.411C32.5034 124.123 32.6481 123.835 33.2266 123.691C33.5159 123.547 34.0944 123.403 34.5283 123.403C34.9622 123.403 35.5407 123.403 35.83 123.547C36.4085 123.691 36.6978 123.979 36.6978 124.267C36.6978 124.555 36.5532 124.843 35.9746 124.987C35.6854 125.131 35.1068 125.275 34.6729 125.275C34.5283 125.131 34.3837 125.131 34.239 125.131ZM33.3712 124.267C33.6605 124.267 34.0944 124.411 34.6729 124.411C35.2515 124.411 35.6854 124.267 35.83 124.123C35.5407 124.123 35.1068 123.979 34.5283 123.979C34.0944 124.123 33.6605 124.267 33.3712 124.267Z" fill="#F8F8EE"/>
<path d="M182.344 181H85.1498C78.9306 181 73.8684 175.96 73.8684 169.769V163.145C73.8684 160.409 76.1825 158.105 78.9306 158.105H188.563C191.311 158.105 193.625 160.409 193.625 163.145V169.769C193.625 175.96 188.563 181 182.344 181Z" fill="#353535"/>
<path d="M93.2495 135.21L83.7037 151.625C80.3771 157.241 84.5715 164.153 91.08 164.153H110.172C116.68 164.153 120.73 157.097 117.548 151.625L108.002 135.21C104.676 129.594 96.4314 129.594 93.2495 135.21Z" fill="#E0E0E0"/>
<path opacity="0.11" d="M88.4764 150.041C88.3318 150.041 88.3318 150.041 88.4764 150.041C88.0425 149.609 87.6086 149.177 87.6086 148.601C87.6086 148.313 87.7533 148.025 87.8979 147.881C88.0425 147.738 88.1872 147.594 88.4764 147.738C88.6211 147.738 88.7657 147.882 88.9103 148.026C88.9103 147.882 88.9103 147.738 89.055 147.738C89.3442 147.306 89.9228 147.306 90.3567 147.45C90.646 147.594 90.7906 147.738 90.9352 148.026C91.0799 148.169 91.2245 148.313 91.5137 148.457C91.6584 148.457 91.6584 148.601 91.6584 148.745C91.6584 148.889 91.5138 148.889 91.3691 148.889C91.0798 148.745 90.9352 148.601 90.7906 148.313C90.6459 148.169 90.5013 148.025 90.2121 147.881C89.9228 147.738 89.6335 147.738 89.4889 148.026C89.3443 148.169 89.3442 148.457 89.3442 148.745C89.3442 148.889 89.3442 148.889 89.1996 148.889C89.055 148.889 89.055 148.889 89.055 148.745C88.9103 148.457 88.7657 148.169 88.4764 148.169C88.3318 148.169 88.3318 148.169 88.1872 148.313C88.0425 148.457 88.0425 148.601 88.0425 148.889C88.0425 149.321 88.3318 149.753 88.6211 150.041C88.6211 149.897 88.6211 150.041 88.4764 150.041Z" fill="#390028"/>
<path opacity="0.11" d="M86.4517 155.225C86.0178 154.937 85.8731 154.505 85.7285 154.217C85.7285 153.929 85.7285 153.785 85.8732 153.641C86.0178 153.353 86.4517 153.353 86.741 153.497C87.0302 153.641 87.1749 153.785 87.3195 154.073C87.3195 154.217 87.3195 154.217 87.3195 154.361C87.1749 154.361 87.1749 154.361 87.0302 154.361C86.8856 154.217 86.741 154.073 86.5963 153.929C86.4517 153.929 86.3071 153.929 86.1624 153.929C86.1624 154.073 86.1624 154.217 86.1624 154.361C86.1624 154.649 86.4517 154.937 86.5963 155.081C86.741 154.937 86.741 155.081 86.4517 155.225C86.5963 155.225 86.5963 155.225 86.4517 155.225Z" fill="#390028"/>
<path opacity="0.11" d="M99.1793 147.882C99.0347 147.882 99.0347 147.882 99.0347 147.738C98.8901 147.45 98.7454 147.162 98.6008 146.874C98.4562 146.73 98.3115 146.586 98.1669 146.586C98.0223 146.586 97.733 146.586 97.733 146.874C97.5884 147.018 97.5884 147.306 97.733 147.45C97.733 147.594 97.733 147.594 97.733 147.738C97.5884 147.738 97.5884 147.738 97.4437 147.738C97.1545 147.45 97.1545 147.018 97.2991 146.73C97.4437 146.442 97.8776 146.298 98.1669 146.298C98.3115 146.298 98.6008 146.442 98.7454 146.73C99.0347 147.018 99.1793 147.306 99.324 147.594C99.324 147.738 99.324 147.882 99.1793 147.882Z" fill="#390028"/>
<path opacity="0.11" d="M97.5883 155.081C97.4437 155.081 97.4437 155.081 97.4437 154.937C97.2991 154.505 97.2991 154.073 97.2991 153.641C97.2991 153.209 97.4437 153.065 97.5883 153.065C97.733 153.065 97.8776 153.065 98.0222 153.065C98.1669 153.065 98.3115 153.209 98.4561 153.353C98.4561 153.065 98.7454 152.777 98.8901 152.633C99.324 152.345 99.9025 152.633 100.192 152.921C100.336 153.065 100.481 153.065 100.626 153.209C100.77 153.353 101.06 153.497 101.204 153.641C101.349 153.641 101.349 153.785 101.349 153.929C101.349 154.073 101.204 154.073 101.06 154.073C100.77 153.929 100.626 153.785 100.481 153.641C100.336 153.497 100.192 153.497 100.192 153.353C100.047 153.209 99.6132 153.065 99.1793 153.209C99.0347 153.209 98.8901 153.497 98.8901 153.641C98.8901 153.641 98.8901 153.785 98.8901 153.929C98.8901 153.929 98.8901 154.073 98.8901 154.217C98.8901 154.217 98.7454 154.361 98.6008 154.217C98.6008 154.217 98.6008 154.217 98.4561 154.073C98.3115 153.929 98.0222 153.785 97.733 153.641H97.5883C97.5883 153.641 97.5883 153.785 97.5883 153.929C97.5883 154.361 97.733 154.793 97.733 155.081C97.733 154.937 97.733 154.937 97.5883 155.081Z" fill="#390028"/>
<path opacity="0.11" d="M102.072 138.666C101.927 138.666 101.927 138.666 101.927 138.522C101.927 138.09 101.927 137.658 101.927 137.226C101.927 136.938 102.072 136.65 102.361 136.506C102.651 136.362 103.085 136.362 103.229 136.65C103.374 136.794 103.374 136.794 103.518 136.938C103.663 136.794 103.663 136.65 103.808 136.506C104.097 136.218 104.531 136.218 104.965 136.218C105.688 136.362 106.122 136.938 106.411 137.37C106.411 137.514 106.411 137.514 106.411 137.658C106.266 137.658 106.267 137.658 106.122 137.658C105.833 137.37 105.399 136.794 104.82 136.65C104.531 136.65 104.242 136.65 103.952 136.794C103.808 136.938 103.663 137.082 103.663 137.37C103.663 137.514 103.663 137.514 103.518 137.514C103.374 137.514 103.374 137.514 103.374 137.37C103.229 137.226 103.085 136.938 102.94 136.794C102.795 136.65 102.651 136.65 102.506 136.794C102.361 136.794 102.361 137.082 102.217 137.226C102.072 137.658 102.072 137.946 102.217 138.378C102.361 138.522 102.217 138.666 102.072 138.666Z" fill="#390028"/>
<path opacity="0.11" d="M109.882 154.649C109.882 154.649 109.738 154.649 109.738 154.505C109.593 154.073 109.593 153.785 109.593 153.353C109.593 153.065 109.738 152.777 110.172 152.633C110.316 152.633 110.461 152.633 110.605 152.777C111.039 153.065 111.473 153.353 111.763 153.929C111.763 154.073 111.763 154.073 111.763 154.217C111.618 154.217 111.618 154.217 111.473 154.217C111.184 153.785 110.895 153.497 110.461 153.209H110.316C110.172 153.209 110.172 153.353 110.172 153.641C110.172 153.929 110.172 154.361 110.316 154.649C110.027 154.505 110.027 154.505 109.882 154.649Z" fill="#390028"/>
<path opacity="0.11" d="M109.159 164.441H91.8031C91.6584 164.441 91.6584 164.297 91.6584 164.297V149.466C91.6584 146.586 93.9726 144.282 96.8653 144.282H104.097C106.99 144.282 109.304 146.586 109.304 149.466V164.153C109.448 164.297 109.304 164.441 109.159 164.441ZM92.0923 164.009H109.014V149.322C109.014 146.586 106.845 144.426 104.097 144.426H96.8653C94.1172 144.426 91.9477 146.586 91.9477 149.322V164.009H92.0923Z" fill="#390028"/>
<path d="M109.159 164.153H91.803V149.322C91.803 146.586 94.1171 144.282 96.8652 144.282H104.097C106.845 144.282 109.159 146.586 109.159 149.322V164.153Z" fill="#390028"/>
<g opacity="0.11">
<path d="M98.0223 138.522C97.733 138.522 97.5884 138.378 97.5884 138.09C97.5884 137.802 97.733 137.658 98.0223 137.658C98.3115 137.658 98.4562 137.802 98.4562 138.09C98.4562 138.378 98.3115 138.522 98.0223 138.522ZM98.0223 137.946C98.0223 138.09 98.0223 138.09 98.0223 137.946Z" fill="#390028"/>
<path d="M94.6959 140.106C94.4066 140.106 94.262 139.962 94.262 139.674C94.262 139.386 94.4066 139.242 94.6959 139.242C94.9851 139.242 95.1298 139.386 95.1298 139.674C95.1298 139.962 94.9851 140.106 94.6959 140.106ZM94.6959 139.674C94.6959 139.818 94.5512 139.818 94.6959 139.674Z" fill="#390028"/>
<path d="M97.7329 141.114C97.299 141.114 97.0098 140.826 97.0098 140.394C97.0098 139.962 97.299 139.674 97.7329 139.674C98.1668 139.674 98.4561 139.962 98.4561 140.394C98.4561 140.682 98.1668 141.114 97.7329 141.114ZM97.7329 140.106C97.5883 140.106 97.4437 140.25 97.4437 140.394C97.4437 140.538 97.5883 140.682 97.7329 140.682C97.8776 140.682 98.0222 140.538 98.0222 140.394C98.0222 140.25 97.8776 140.106 97.7329 140.106Z" fill="#390028"/>
</g>
<g opacity="0.11">
<path d="M114.366 155.801C114.221 155.801 114.221 155.801 114.077 155.657C113.932 155.513 113.932 155.225 114.077 155.081C114.221 154.937 114.511 154.937 114.655 155.081C114.8 155.225 114.8 155.513 114.655 155.657C114.655 155.801 114.511 155.801 114.366 155.801ZM114.366 155.369C114.511 155.513 114.366 155.513 114.366 155.369Z" fill="#390028"/>
<path d="M110.895 154.937C110.75 154.937 110.75 154.937 110.606 154.793C110.461 154.649 110.461 154.649 110.461 154.505C110.461 154.361 110.461 154.217 110.606 154.217C110.75 154.073 111.039 154.073 111.184 154.217C111.329 154.217 111.329 154.361 111.329 154.505C111.329 154.649 111.329 154.793 111.184 154.793C111.039 154.937 110.895 154.937 110.895 154.937ZM110.895 154.505C110.75 154.505 110.75 154.505 110.895 154.505C110.895 154.649 110.75 154.649 110.895 154.505Z" fill="#390028"/>
<path d="M112.775 157.673C112.631 157.673 112.486 157.673 112.341 157.529C112.197 157.385 112.052 157.241 112.052 157.097C112.052 156.953 112.052 156.809 112.197 156.665C112.486 156.377 112.92 156.377 113.209 156.521C113.354 156.665 113.498 156.809 113.498 156.953C113.498 157.097 113.498 157.241 113.354 157.385C113.209 157.673 112.92 157.673 112.775 157.673ZM112.775 156.665C112.631 156.665 112.631 156.665 112.486 156.809C112.486 156.809 112.341 156.953 112.486 157.097C112.486 157.241 112.486 157.241 112.631 157.241C112.775 157.385 112.92 157.385 113.064 157.241C113.064 157.241 113.209 157.097 113.064 156.953C113.064 156.809 113.064 156.809 112.92 156.809C112.92 156.665 112.775 156.665 112.775 156.665Z" fill="#390028"/>
</g>
<path d="M185.381 157.673H159.058C156.454 157.673 154.429 155.513 154.429 153.065V147.738C154.429 145.146 156.599 143.13 159.058 143.13H185.381C187.984 143.13 190.009 145.29 190.009 147.738V153.065C190.009 155.657 187.84 157.673 185.381 157.673Z" fill="#F8F8EE"/>
<path opacity="0.11" d="M160.938 152.921C160.504 152.489 160.07 151.913 160.07 151.481C160.07 151.193 160.215 150.905 160.359 150.617C160.504 150.473 160.649 150.329 160.938 150.473C161.083 150.473 161.372 150.617 161.372 150.761C161.372 150.617 161.372 150.473 161.516 150.473C161.806 150.041 162.384 150.041 162.818 150.185C163.107 150.329 163.252 150.473 163.397 150.761C163.541 150.905 163.686 151.049 163.975 151.193C164.12 151.193 164.12 151.337 164.12 151.481C164.12 151.625 163.975 151.625 163.831 151.625C163.541 151.481 163.397 151.337 163.252 151.049C163.107 150.905 162.963 150.761 162.673 150.617C162.384 150.473 162.095 150.473 161.806 150.761C161.661 150.905 161.661 151.193 161.661 151.481C161.661 151.625 161.661 151.625 161.516 151.625C161.372 151.625 161.372 151.625 161.372 151.481C161.227 151.193 161.083 150.905 160.793 150.905C160.649 150.905 160.649 150.905 160.504 151.049C160.359 151.193 160.359 151.337 160.359 151.625C160.359 152.057 160.649 152.489 160.938 152.777C161.227 152.633 161.227 152.777 160.938 152.921C161.083 152.921 161.083 152.921 160.938 152.921Z" fill="#390028"/>
<path opacity="0.11" d="M158.913 155.225C158.479 154.937 158.335 154.505 158.19 154.217C158.19 153.929 158.19 153.785 158.335 153.497C158.479 153.209 158.913 153.209 159.202 153.353C159.492 153.497 159.636 153.641 159.781 153.929C159.781 154.073 159.781 154.073 159.781 154.217C159.636 154.217 159.636 154.217 159.492 154.217C159.347 154.073 159.202 153.929 159.058 153.785C158.913 153.785 158.768 153.785 158.624 153.785C158.624 153.929 158.624 154.073 158.624 154.217C158.624 154.505 158.913 154.793 159.058 155.081C159.202 154.937 159.202 155.081 158.913 155.225C159.058 155.225 159.058 155.225 158.913 155.225Z" fill="#390028"/>
<path opacity="0.11" d="M172.075 150.617C171.93 150.617 171.93 150.617 171.93 150.474C171.785 150.186 171.641 149.898 171.496 149.61C171.351 149.466 171.207 149.322 171.062 149.322C170.918 149.322 170.628 149.322 170.628 149.61C170.484 149.754 170.484 150.042 170.628 150.186C170.628 150.33 170.628 150.33 170.628 150.474C170.484 150.474 170.484 150.474 170.339 150.474C170.05 150.186 170.05 149.754 170.194 149.466C170.339 149.178 170.773 149.034 171.062 149.034C171.351 149.034 171.496 149.178 171.641 149.466C171.93 149.754 172.075 150.042 172.219 150.474C172.219 150.474 172.219 150.617 172.075 150.617Z" fill="#390028"/>
<path opacity="0.11" d="M170.484 155.081C170.339 155.081 170.339 155.081 170.339 154.937C170.194 154.505 170.194 154.073 170.194 153.641C170.194 153.209 170.339 153.065 170.484 153.065C170.628 153.065 170.773 153.065 170.918 153.065C171.062 153.065 171.207 153.209 171.351 153.353C171.351 153.065 171.641 152.777 171.785 152.633C172.364 152.345 172.798 152.633 173.087 152.921C173.232 153.065 173.376 153.065 173.521 153.209C173.666 153.353 173.955 153.497 174.099 153.641C174.244 153.641 174.244 153.785 174.244 153.929C174.244 154.073 174.099 154.073 173.955 154.073C173.666 153.929 173.521 153.785 173.232 153.641C173.087 153.497 172.942 153.497 172.798 153.353C172.653 153.209 172.219 152.921 171.785 153.209C171.641 153.209 171.496 153.497 171.496 153.641C171.496 153.641 171.496 153.785 171.496 153.929C171.496 153.929 171.496 154.073 171.496 154.217C171.496 154.217 171.351 154.361 171.207 154.217C171.207 154.217 171.207 154.217 171.062 154.073C170.918 153.929 170.628 153.785 170.339 153.641H170.194C170.194 153.641 170.194 153.785 170.194 153.929C170.194 154.361 170.339 154.793 170.339 155.225C170.628 154.937 170.484 154.937 170.484 155.081Z" fill="#390028"/>
<path opacity="0.11" d="M180.319 151.337C180.174 151.337 180.174 151.337 180.174 151.193C180.174 150.761 180.174 150.329 180.174 149.897C180.174 149.609 180.319 149.322 180.608 149.178C180.897 149.034 181.186 149.034 181.476 149.322C181.62 149.465 181.765 149.466 181.765 149.609C181.91 149.466 181.91 149.322 182.054 149.178C182.344 148.89 182.777 148.89 183.211 148.89C183.935 149.034 184.368 149.609 184.802 150.041C184.802 150.185 184.802 150.185 184.802 150.329C184.658 150.329 184.658 150.329 184.513 150.329C184.224 149.897 183.79 149.465 183.211 149.322C182.922 149.322 182.633 149.322 182.344 149.466C182.199 149.609 182.054 149.753 182.054 150.041C182.054 150.185 182.054 150.185 181.91 150.185C181.765 150.185 181.765 150.185 181.765 150.041C181.62 149.897 181.476 149.609 181.331 149.466C181.187 149.322 181.042 149.322 180.897 149.322C180.753 149.322 180.753 149.609 180.608 149.753C180.463 150.185 180.463 150.473 180.608 150.905C180.608 151.193 180.463 151.337 180.319 151.337C180.463 151.337 180.463 151.337 180.319 151.337Z" fill="#390028"/>
<path opacity="0.11" d="M183.067 154.649C183.067 154.649 182.922 154.649 182.922 154.505C182.778 154.073 182.778 153.785 182.778 153.353C182.778 153.065 182.922 152.633 183.356 152.633C183.501 152.633 183.645 152.633 183.79 152.777C184.224 153.065 184.658 153.497 184.947 153.929C184.947 154.073 184.947 154.073 184.947 154.217C184.802 154.217 184.802 154.217 184.658 154.217C184.369 153.785 184.079 153.497 183.645 153.209H183.501C183.356 153.209 183.356 153.353 183.356 153.641C183.356 153.929 183.356 154.361 183.501 154.649C183.356 154.505 183.211 154.505 183.067 154.649Z" fill="#390028"/>
<path d="M188.274 147.162H156.02C153.417 147.162 151.392 145.002 151.392 142.554V139.674C151.392 137.082 153.562 135.066 156.02 135.066H188.274C190.877 135.066 192.902 137.226 192.902 139.674V142.554C193.047 145.146 190.877 147.162 188.274 147.162Z" fill="#FF7664"/>
<path d="M159.636 135.066H156.599V147.162H159.636V135.066Z" fill="#F94A3D"/>
<path d="M168.748 135.066H165.711V147.162H168.748V135.066Z" fill="#F94A3D"/>
<path d="M178.149 135.066H175.112V147.162H178.149V135.066Z" fill="#F94A3D"/>
<path d="M187.55 135.066H184.513V147.162H187.55V135.066Z" fill="#F94A3D"/>
<path d="M149.801 141.114H119.428V159.257H149.801V141.114Z" fill="#390028"/>
<path d="M134.615 146.298C143.002 146.298 149.801 144.041 149.801 141.258C149.801 138.474 143.002 136.218 134.615 136.218C126.227 136.218 119.428 138.474 119.428 141.258C119.428 144.041 126.227 146.298 134.615 146.298Z" fill="#F8F8EE"/>
<path d="M134.615 142.122C137.091 142.122 139.098 141.477 139.098 140.682C139.098 139.887 137.091 139.242 134.615 139.242C132.138 139.242 130.131 139.887 130.131 140.682C130.131 141.477 132.138 142.122 134.615 142.122Z" fill="#F94A3D"/>
<path opacity="0.11" d="M130.999 139.242C130.854 139.242 130.854 139.242 130.854 139.098C130.854 138.666 130.854 138.234 130.854 137.802C130.854 137.514 130.999 137.226 131.288 137.082C131.577 136.938 132.011 136.938 132.156 137.226C132.3 137.37 132.445 137.37 132.445 137.514C132.59 137.37 132.59 137.226 132.734 137.082C133.024 136.794 133.457 136.794 133.891 136.794C134.614 136.938 135.048 137.514 135.482 137.946C135.482 138.09 135.482 138.09 135.482 138.234C135.338 138.234 135.338 138.234 135.193 138.234C134.904 137.802 134.47 137.37 133.891 137.226C133.602 137.226 133.313 137.226 133.024 137.37C132.879 137.514 132.734 137.658 132.734 137.946C132.734 138.09 132.734 138.09 132.59 138.09C132.445 138.09 132.445 138.09 132.445 137.946C132.3 137.658 132.156 137.514 132.011 137.37C131.866 137.226 131.722 137.226 131.577 137.226C131.433 137.226 131.433 137.514 131.288 137.658C131.143 138.09 131.143 138.378 131.288 138.81C131.143 139.242 131.143 139.242 130.999 139.242Z" fill="#390028"/>
<g opacity="0.11">
<path d="M126.804 139.098C126.515 139.098 126.37 138.954 126.37 138.666C126.37 138.378 126.515 138.234 126.804 138.234C127.094 138.234 127.238 138.378 127.238 138.666C127.238 138.954 127.094 139.098 126.804 139.098ZM126.804 138.666C126.804 138.81 126.66 138.81 126.804 138.666Z" fill="#390028"/>
<path d="M123.333 140.826C123.044 140.826 122.899 140.682 122.899 140.394C122.899 140.106 123.044 139.962 123.333 139.962C123.622 139.962 123.767 140.106 123.767 140.394C123.767 140.682 123.622 140.826 123.333 140.826ZM123.333 140.25C123.478 140.394 123.333 140.394 123.333 140.25Z" fill="#390028"/>
<path d="M126.515 141.834C126.081 141.834 125.792 141.546 125.792 141.114C125.792 140.682 126.081 140.394 126.515 140.394C126.949 140.394 127.238 140.682 127.238 141.114C127.238 141.402 126.949 141.834 126.515 141.834ZM126.515 140.826C126.371 140.826 126.226 140.97 126.226 141.114C126.226 141.258 126.371 141.402 126.515 141.402C126.66 141.402 126.804 141.258 126.804 141.114C126.804 140.97 126.66 140.826 126.515 140.826Z" fill="#390028"/>
</g>
<g opacity="0.11">
<path d="M144.594 140.826C144.305 140.826 144.16 140.682 144.16 140.394C144.16 140.106 144.305 139.962 144.594 139.962C144.884 139.962 145.028 140.106 145.028 140.394C145.028 140.682 144.739 140.826 144.594 140.826ZM144.594 140.394C144.45 140.394 144.45 140.394 144.594 140.394C144.594 140.538 144.45 140.538 144.594 140.394Z" fill="#390028"/>
<path d="M141.123 142.554C140.834 142.554 140.689 142.41 140.689 142.122C140.689 141.834 140.834 141.69 141.123 141.69C141.412 141.69 141.557 141.834 141.557 142.122C141.557 142.266 141.412 142.554 141.123 142.554ZM141.123 141.978C141.123 142.122 140.978 142.122 141.123 141.978Z" fill="#390028"/>
<path d="M144.305 143.418C143.871 143.418 143.582 143.13 143.582 142.698C143.582 142.266 143.871 141.978 144.305 141.978C144.739 141.978 145.028 142.266 145.028 142.698C145.028 143.13 144.739 143.418 144.305 143.418ZM144.305 142.41C144.16 142.41 144.016 142.554 144.016 142.698C144.016 142.842 144.16 142.986 144.305 142.986C144.45 142.986 144.594 142.842 144.594 142.698C144.594 142.554 144.45 142.41 144.305 142.41Z" fill="#390028"/>
</g>
<path d="M182.778 175.096H156.454C153.851 175.096 151.826 172.936 151.826 170.489V165.161C151.826 162.569 153.996 160.553 156.454 160.553H182.778C185.381 160.553 187.406 162.713 187.406 165.161V170.489C187.551 173.08 185.381 175.096 182.778 175.096Z" fill="#F8F8EE"/>
<path opacity="0.11" d="M158.479 170.345C158.045 169.913 157.611 169.337 157.611 168.905C157.611 168.617 157.756 168.329 157.901 168.041C158.045 167.897 158.19 167.753 158.479 167.897C158.624 167.897 158.913 168.041 158.913 168.185C158.913 168.041 158.913 167.897 159.058 167.897C159.347 167.465 159.925 167.465 160.359 167.609C160.649 167.753 160.793 167.897 160.938 168.185C161.083 168.329 161.227 168.473 161.516 168.617C161.661 168.617 161.661 168.761 161.661 168.905C161.661 169.049 161.516 169.049 161.372 169.049C161.083 168.905 160.938 168.761 160.793 168.473C160.649 168.329 160.504 168.185 160.215 168.041C159.925 167.897 159.492 167.897 159.347 168.185C159.202 168.329 159.202 168.617 159.202 168.905C159.202 169.049 159.202 169.049 159.058 169.049C158.913 169.049 158.913 169.049 158.913 168.905C158.768 168.617 158.624 168.329 158.334 168.329C158.19 168.329 158.19 168.329 158.045 168.473C157.901 168.617 157.901 168.761 157.901 169.049C157.901 169.481 158.19 169.913 158.479 170.201C158.624 170.057 158.624 170.201 158.479 170.345Z" fill="#390028"/>
<path opacity="0.11" d="M156.454 172.649C156.02 172.361 155.876 171.929 155.731 171.641C155.731 171.353 155.731 171.209 155.876 170.921C156.02 170.633 156.454 170.633 156.743 170.777C157.033 170.921 157.177 171.065 157.322 171.353C157.322 171.497 157.322 171.497 157.322 171.641C157.177 171.641 157.177 171.641 157.033 171.641C156.888 171.497 156.743 171.353 156.599 171.209C156.454 171.209 156.309 171.209 156.165 171.209C156.165 171.353 156.165 171.497 156.165 171.641C156.165 171.929 156.454 172.217 156.599 172.505C156.599 172.361 156.599 172.505 156.454 172.649Z" fill="#390028"/>
<path opacity="0.11" d="M169.471 168.041C169.327 168.041 169.327 168.041 169.327 167.897C169.182 167.609 169.037 167.321 168.893 167.033C168.748 166.889 168.604 166.745 168.459 166.745C168.314 166.745 168.025 166.745 168.025 167.033C167.88 167.177 167.88 167.465 168.025 167.609C168.025 167.753 168.025 167.753 168.025 167.897C167.88 167.897 167.88 167.897 167.736 167.897C167.446 167.609 167.446 167.177 167.591 166.889C167.736 166.601 168.17 166.457 168.459 166.457C168.748 166.457 168.893 166.601 169.037 166.889C169.327 167.177 169.471 167.465 169.616 167.897C169.761 167.897 169.616 168.041 169.471 168.041Z" fill="#390028"/>
<path opacity="0.11" d="M167.88 172.504C167.736 172.504 167.736 172.504 167.736 172.36C167.591 171.928 167.591 171.496 167.591 171.065C167.591 170.633 167.736 170.489 167.88 170.489C168.025 170.489 168.17 170.489 168.314 170.489C168.459 170.489 168.603 170.633 168.748 170.777C168.748 170.489 169.037 170.201 169.182 170.057C169.761 169.769 170.194 170.057 170.484 170.345C170.628 170.489 170.773 170.489 170.918 170.633C171.062 170.777 171.352 170.921 171.496 171.065C171.641 171.065 171.641 171.208 171.641 171.352C171.641 171.496 171.496 171.496 171.352 171.496C171.062 171.352 170.918 171.208 170.628 171.065C170.484 170.921 170.339 170.921 170.194 170.777C170.05 170.633 169.616 170.345 169.182 170.633C169.037 170.633 168.893 170.921 168.893 171.065C168.893 171.065 168.893 171.208 168.893 171.352C168.893 171.352 168.893 171.496 168.893 171.64C168.893 171.64 168.748 171.784 168.603 171.64C168.603 171.64 168.603 171.64 168.459 171.496C168.314 171.352 168.025 171.208 167.736 171.065C167.591 171.065 167.591 171.065 167.591 171.065C167.591 171.065 167.591 171.208 167.591 171.352C167.591 171.784 167.736 172.216 167.736 172.648C168.17 172.36 168.025 172.504 167.88 172.504Z" fill="#390028"/>
<path opacity="0.11" d="M177.86 168.761C177.715 168.761 177.715 168.761 177.715 168.617C177.715 168.185 177.715 167.753 177.715 167.321C177.715 167.033 177.86 166.745 178.149 166.601C178.439 166.457 178.872 166.457 179.017 166.745C179.162 166.889 179.306 166.889 179.306 167.033C179.451 166.889 179.451 166.745 179.596 166.601C179.885 166.313 180.319 166.313 180.753 166.313C181.476 166.457 181.91 167.033 182.344 167.465C182.344 167.609 182.344 167.609 182.344 167.753C182.199 167.753 182.199 167.753 182.054 167.753C181.765 167.321 181.331 166.889 180.753 166.745C180.463 166.745 180.174 166.745 179.885 166.889C179.74 167.033 179.596 167.177 179.596 167.465C179.596 167.609 179.596 167.609 179.451 167.609C179.306 167.609 179.306 167.609 179.306 167.465C179.162 167.177 179.017 167.033 178.872 166.889C178.728 166.745 178.583 166.745 178.439 166.745C178.294 166.745 178.294 167.033 178.149 167.177C178.005 167.609 178.005 167.897 178.149 168.329C178.005 168.761 178.005 168.761 177.86 168.761Z" fill="#390028"/>
<path opacity="0.11" d="M180.608 172.072C180.608 172.072 180.463 172.072 180.463 171.928C180.319 171.496 180.319 171.064 180.319 170.776C180.319 170.488 180.463 170.057 180.897 170.057C181.042 170.057 181.187 170.057 181.331 170.201C181.765 170.488 182.199 170.92 182.488 171.352C182.488 171.496 182.488 171.496 182.488 171.64C182.344 171.64 182.344 171.64 182.199 171.64C181.91 171.208 181.621 170.92 181.187 170.632H181.042C180.897 170.632 180.897 170.776 180.897 171.064C180.897 171.352 180.897 171.784 181.042 172.072C180.753 171.928 180.753 171.928 180.608 172.072Z" fill="#390028"/>
<path d="M185.815 164.585H153.562C150.958 164.585 148.933 162.425 148.933 159.977V157.097C148.933 154.505 151.103 152.489 153.562 152.489H185.815C188.418 152.489 190.443 154.649 190.443 157.097V159.977C190.588 162.569 188.418 164.585 185.815 164.585Z" fill="#FF7664"/>
<path d="M157.177 152.489H154.14V164.585H157.177V152.489Z" fill="#F94A3D"/>
<path d="M166.145 152.489H163.107V164.585H166.145V152.489Z" fill="#F94A3D"/>
<path d="M175.691 152.489H172.653V164.585H175.691V152.489Z" fill="#F94A3D"/>
<path d="M185.092 152.489H182.054V164.585H185.092V152.489Z" fill="#F94A3D"/>
<path d="M147.487 154.793H117.114V172.936H147.487V154.793Z" fill="#390028"/>
<path d="M132.301 159.977C140.688 159.977 147.487 157.721 147.487 154.937C147.487 152.154 140.688 149.897 132.301 149.897C123.913 149.897 117.114 152.154 117.114 154.937C117.114 157.721 123.913 159.977 132.301 159.977Z" fill="#F8F8EE"/>
<path d="M132.301 155.801C134.777 155.801 136.784 155.156 136.784 154.361C136.784 153.566 134.777 152.921 132.301 152.921C129.824 152.921 127.817 153.566 127.817 154.361C127.817 155.156 129.824 155.801 132.301 155.801Z" fill="#F94A3D"/>
<path opacity="0.11" d="M128.54 152.921C128.396 152.921 128.396 152.921 128.396 152.777C128.396 152.345 128.396 151.913 128.396 151.481C128.396 151.193 128.54 150.905 128.829 150.761C129.119 150.617 129.553 150.617 129.697 150.905C129.842 151.049 129.986 151.049 129.986 151.193C130.131 151.049 130.131 150.905 130.276 150.761C130.565 150.473 130.999 150.473 131.433 150.473C132.156 150.617 132.59 151.193 133.024 151.625C133.024 151.769 133.024 151.769 133.024 151.913C132.879 151.913 132.879 151.913 132.735 151.913C132.445 151.481 132.011 151.049 131.433 150.905C131.144 150.905 130.854 150.905 130.565 151.049C130.42 151.193 130.276 151.337 130.276 151.625C130.276 151.769 130.276 151.769 130.131 151.769C129.986 151.769 129.986 151.769 129.986 151.625C129.842 151.481 129.697 151.193 129.553 151.049C129.408 150.905 129.263 150.905 129.119 150.905C128.974 150.905 128.974 151.193 128.829 151.337C128.685 151.769 128.685 152.057 128.829 152.489C128.829 152.777 128.685 152.921 128.54 152.921Z" fill="#390028"/>
<g opacity="0.11">
<path d="M124.346 152.777C124.056 152.777 123.912 152.633 123.912 152.345C123.912 152.057 124.056 151.913 124.346 151.913C124.635 151.913 124.779 152.057 124.779 152.345C124.779 152.633 124.635 152.777 124.346 152.777ZM124.346 152.345C124.49 152.489 124.346 152.489 124.346 152.345Z" fill="#390028"/>
<path d="M120.874 154.505C120.585 154.505 120.44 154.361 120.44 154.073C120.44 153.785 120.585 153.641 120.874 153.641C121.164 153.641 121.308 153.785 121.308 154.073C121.308 154.217 121.164 154.505 120.874 154.505ZM120.874 153.929C121.019 154.073 120.874 154.073 120.874 153.929C121.019 153.929 121.019 153.929 120.874 153.929Z" fill="#390028"/>
<path d="M124.056 155.513C123.623 155.513 123.333 155.225 123.333 154.793C123.333 154.361 123.623 154.073 124.056 154.073C124.49 154.073 124.78 154.361 124.78 154.793C124.78 155.081 124.49 155.513 124.056 155.513ZM124.056 154.361C123.912 154.361 123.767 154.505 123.767 154.649C123.767 154.793 123.912 154.937 124.056 154.937C124.201 154.937 124.346 154.793 124.346 154.649C124.49 154.505 124.346 154.361 124.056 154.361Z" fill="#390028"/>
</g>
<g opacity="0.11">
<path d="M142.136 154.505C141.847 154.505 141.702 154.361 141.702 154.073C141.702 153.785 141.847 153.641 142.136 153.641C142.425 153.641 142.57 153.785 142.57 154.073C142.57 154.361 142.425 154.505 142.136 154.505ZM142.136 153.929C142.136 154.073 141.991 154.073 142.136 153.929Z" fill="#390028"/>
<path d="M138.664 156.089C138.375 156.089 138.23 155.945 138.23 155.657C138.23 155.369 138.375 155.225 138.664 155.225C138.954 155.225 139.098 155.369 139.098 155.657C139.098 155.945 138.954 156.089 138.664 156.089ZM138.664 155.657C138.809 155.801 138.664 155.801 138.664 155.657Z" fill="#390028"/>
<path d="M141.846 157.097C141.413 157.097 141.123 156.809 141.123 156.377C141.123 155.945 141.413 155.657 141.846 155.657C142.28 155.657 142.57 155.945 142.57 156.377C142.57 156.809 142.28 157.097 141.846 157.097ZM141.846 156.089C141.702 156.089 141.557 156.233 141.557 156.377C141.557 156.521 141.702 156.665 141.846 156.665C141.991 156.665 142.136 156.521 142.136 156.377C142.136 156.233 141.991 156.089 141.846 156.089Z" fill="#390028"/>
</g>
<path d="M87.464 147.018L77.6289 164.009C74.3023 169.769 78.4967 176.968 85.1498 176.968H104.82C111.473 176.968 115.668 169.769 112.341 164.009L102.506 147.018C99.3239 141.258 90.9352 141.258 87.464 147.018Z" fill="white"/>
<path opacity="0.11" d="M82.5465 162.425C82.1126 161.993 81.6787 161.417 81.6787 160.985C81.6787 160.697 81.8233 160.409 81.968 160.121C82.1126 159.977 82.2572 159.833 82.5465 159.977C82.6911 159.977 82.9804 160.121 82.9804 160.265C82.9804 160.121 82.9804 159.977 83.125 159.977C83.4143 159.545 83.9929 159.545 84.4268 159.689C84.716 159.833 84.8606 159.977 85.0053 160.265C85.1499 160.409 85.2945 160.553 85.5838 160.697C85.7284 160.697 85.7284 160.841 85.7284 160.985C85.7284 161.129 85.5838 161.129 85.4392 161.129C85.1499 160.985 85.0053 160.841 84.8606 160.553C84.716 160.409 84.5714 160.265 84.2821 160.121C83.9928 159.977 83.5589 159.977 83.4143 160.265C83.2697 160.409 83.2697 160.697 83.2697 160.985C83.2697 161.129 83.2697 161.129 83.125 161.129C82.9804 161.129 82.9804 161.129 82.9804 160.985C82.8358 160.697 82.6911 160.409 82.4019 160.409C82.2572 160.409 82.2572 160.409 82.1126 160.553C81.968 160.697 81.968 160.841 81.968 161.129C81.968 161.561 82.2572 161.993 82.5465 162.281C82.8358 162.281 82.8358 162.281 82.5465 162.425C82.6911 162.425 82.6911 162.425 82.5465 162.425Z" fill="#390028"/>
<path opacity="0.11" d="M80.5215 167.753C80.0876 167.465 79.943 167.033 79.7983 166.745C79.7983 166.457 79.7983 166.313 79.943 166.025C80.0876 165.737 80.5215 165.737 80.8108 165.881C81.1 166.025 81.2447 166.169 81.3893 166.457C81.3893 166.601 81.3893 166.601 81.3893 166.745C81.2447 166.745 81.2447 166.745 81.1 166.745C80.9554 166.601 80.8108 166.457 80.6661 166.313C80.5215 166.313 80.3769 166.313 80.2322 166.313C80.2322 166.457 80.2322 166.601 80.2322 166.745C80.2322 167.033 80.5215 167.321 80.6661 167.609C80.8108 167.465 80.8108 167.609 80.5215 167.753C80.6661 167.753 80.6661 167.609 80.5215 167.753Z" fill="#390028"/>
<path opacity="0.11" d="M93.6832 160.121C93.5386 160.121 93.5386 160.121 93.5386 159.977C93.394 159.689 93.2494 159.401 93.1047 159.113C92.9601 158.969 92.8154 158.825 92.6708 158.825C92.5262 158.825 92.2369 158.825 92.2369 159.113C92.0923 159.257 92.0923 159.545 92.2369 159.689C92.2369 159.833 92.2369 159.833 92.2369 159.977C92.0923 159.977 92.0923 159.977 91.9476 159.977C91.6584 159.689 91.6584 159.257 91.803 158.969C91.9476 158.681 92.3815 158.537 92.6708 158.537C92.9601 158.537 93.1047 158.681 93.2493 158.969C93.5386 159.257 93.6833 159.545 93.8279 159.977C93.8279 159.977 93.8279 160.121 93.6832 160.121Z" fill="#390028"/>
<path opacity="0.11" d="M91.9477 167.465C91.8031 167.465 91.8031 167.465 91.8031 167.321C91.6584 166.889 91.6584 166.457 91.6584 166.025C91.6584 165.593 91.8031 165.449 91.9477 165.449C92.0923 165.449 92.237 165.449 92.3816 165.449C92.5262 165.449 92.6709 165.593 92.8155 165.737C92.8155 165.449 93.1048 165.161 93.2494 165.017C93.828 164.729 94.2619 165.017 94.5511 165.305C94.6958 165.449 94.8404 165.449 94.985 165.593C95.1296 165.737 95.4189 165.881 95.5636 166.025C95.7082 166.025 95.7082 166.169 95.7082 166.313C95.7082 166.457 95.5636 166.457 95.4189 166.457C95.1297 166.313 94.985 166.169 94.6958 166.025C94.5511 165.881 94.4065 165.881 94.2618 165.737C94.1172 165.593 93.6833 165.305 93.2494 165.593C93.1048 165.593 92.9601 165.881 92.9601 166.025C92.9601 166.025 92.9601 166.169 92.9601 166.313C92.9601 166.313 92.9601 166.457 92.9601 166.601C92.9601 166.601 92.8155 166.745 92.6709 166.601C92.6709 166.601 92.6709 166.601 92.5262 166.457C92.3816 166.313 92.0923 166.169 91.8031 166.025H91.6584C91.6584 166.025 91.6584 166.169 91.6584 166.313C91.6584 166.745 91.8031 167.177 91.8031 167.609C92.237 167.465 92.0923 167.465 91.9477 167.465C92.0923 167.465 92.0923 167.465 91.9477 167.465Z" fill="#390028"/>
<path opacity="0.11" d="M96.7206 150.617C96.5759 150.617 96.5759 150.617 96.5759 150.473C96.5759 150.041 96.5759 149.609 96.5759 149.178C96.5759 148.89 96.7206 148.602 97.0098 148.458C97.2991 148.314 97.733 148.314 97.8776 148.602C98.0223 148.746 98.1669 148.746 98.1669 148.89C98.3115 148.746 98.3115 148.602 98.4562 148.458C98.7454 148.17 99.1793 148.17 99.6132 148.17C100.336 148.314 100.77 148.89 101.204 149.321C101.204 149.465 101.204 149.465 101.204 149.609C101.06 149.609 101.06 149.609 100.915 149.609C100.626 149.178 100.192 148.746 99.6132 148.602C99.324 148.602 99.0347 148.602 98.7454 148.746C98.6008 148.89 98.4562 149.034 98.4562 149.321C98.4562 149.465 98.4562 149.466 98.3115 149.466C98.1669 149.466 98.1669 149.465 98.1669 149.321C98.0223 149.178 97.8776 148.89 97.733 148.746C97.5884 148.602 97.4437 148.602 97.2991 148.602C97.1545 148.602 97.1545 148.89 97.0098 149.034C96.8652 149.465 96.8652 149.753 97.0098 150.185C96.8652 150.473 96.8652 150.617 96.7206 150.617Z" fill="#390028"/>
<path opacity="0.11" d="M104.676 167.033C104.676 167.033 104.531 167.033 104.531 166.889C104.386 166.457 104.386 166.025 104.386 165.737C104.386 165.449 104.531 165.017 104.965 165.017C105.109 165.017 105.254 165.017 105.399 165.161C105.833 165.449 106.266 165.881 106.556 166.313C106.556 166.457 106.556 166.457 106.556 166.601C106.411 166.601 106.411 166.601 106.266 166.601C105.977 166.169 105.688 165.881 105.254 165.593H105.109C104.965 165.593 104.965 165.737 104.965 166.025C104.965 166.313 104.965 166.745 105.109 167.033C104.82 166.889 104.82 167.033 104.676 167.033Z" fill="#390028"/>
<path opacity="0.11" d="M103.952 177.256H86.1622C86.0176 177.256 86.0176 177.112 86.0176 177.112V161.705C86.0176 158.825 88.3317 156.521 91.2244 156.521H98.89C101.783 156.521 104.097 158.825 104.097 161.705V177.112C104.241 177.112 104.097 177.256 103.952 177.256ZM86.3068 176.824H103.808V161.561C103.808 158.825 101.638 156.665 98.89 156.665H91.2244C88.4763 156.665 86.3068 158.825 86.3068 161.561V176.824Z" fill="#390028"/>
<path d="M103.952 176.968H86.1624V161.561C86.1624 158.825 88.4765 156.521 91.2245 156.521H98.8901C101.638 156.521 103.952 158.825 103.952 161.561V176.968Z" fill="#390028"/>
<g opacity="0.11">
<path d="M92.3817 150.473C92.0924 150.473 91.9478 150.329 91.9478 150.041C91.9478 149.753 92.0924 149.609 92.3817 149.609C92.6709 149.609 92.8156 149.753 92.8156 150.041C92.8156 150.329 92.6709 150.473 92.3817 150.473ZM92.3817 150.041C92.5263 150.185 92.3817 150.185 92.3817 150.041C92.5263 150.041 92.5263 150.041 92.3817 150.041Z" fill="#390028"/>
<path d="M89.055 152.201C88.7657 152.201 88.6211 152.057 88.6211 151.769C88.6211 151.481 88.7657 151.337 89.055 151.337C89.3443 151.337 89.4889 151.481 89.4889 151.769C89.4889 151.913 89.1996 152.201 89.055 152.201ZM89.055 151.625C88.9104 151.625 88.9104 151.625 89.055 151.625C89.055 151.769 88.9104 151.769 89.055 151.625Z" fill="#390028"/>
<path d="M92.2368 153.065C91.8029 153.065 91.5137 152.777 91.5137 152.345C91.5137 151.913 91.8029 151.625 92.2368 151.625C92.6707 151.625 92.96 151.913 92.96 152.345C92.96 152.777 92.5261 153.065 92.2368 153.065ZM92.2368 152.057C92.0922 152.057 91.9476 152.201 91.9476 152.345C91.9476 152.489 92.0922 152.633 92.2368 152.633C92.3815 152.633 92.5261 152.489 92.5261 152.345C92.5261 152.201 92.3815 152.057 92.2368 152.057Z" fill="#390028"/>
</g>
<g opacity="0.11">
<path d="M109.304 168.329C109.159 168.329 109.159 168.329 109.015 168.185C108.87 168.041 108.87 168.041 108.87 167.897C108.87 167.753 108.87 167.609 109.015 167.609C109.159 167.465 109.159 167.465 109.304 167.465C109.448 167.465 109.593 167.465 109.593 167.609C109.738 167.753 109.738 167.753 109.738 167.897C109.738 168.041 109.738 168.185 109.593 168.185C109.593 168.329 109.448 168.329 109.304 168.329ZM109.304 167.897C109.448 168.041 109.304 168.041 109.304 167.897Z" fill="#390028"/>
<path d="M105.688 167.465C105.543 167.465 105.543 167.465 105.399 167.321C105.254 167.177 105.254 166.889 105.399 166.745C105.543 166.601 105.833 166.601 105.977 166.745C106.122 166.889 106.122 166.889 106.122 167.033C106.122 167.177 106.122 167.321 105.977 167.321C105.977 167.321 105.833 167.465 105.688 167.465ZM105.688 166.889C105.543 167.033 105.543 167.033 105.688 166.889C105.688 167.033 105.688 167.033 105.688 166.889Z" fill="#390028"/>
<path d="M107.713 170.345C107.568 170.345 107.424 170.345 107.279 170.201C107.134 170.057 106.99 169.913 106.99 169.769C106.99 169.625 106.99 169.337 107.134 169.337C107.424 169.049 107.858 169.049 108.147 169.193C108.291 169.337 108.436 169.481 108.436 169.625C108.436 169.769 108.436 170.057 108.291 170.057C108.002 170.201 107.858 170.345 107.713 170.345ZM107.713 169.193C107.568 169.193 107.568 169.193 107.424 169.337C107.424 169.337 107.279 169.481 107.279 169.625C107.279 169.769 107.279 169.769 107.424 169.913C107.568 170.057 107.713 170.057 107.858 169.913C107.858 169.913 108.002 169.769 108.002 169.625C108.002 169.481 108.002 169.481 107.858 169.337L107.713 169.193Z" fill="#390028"/>
</g>
<path d="M186.104 181H81.8232C76.9057 181 72.856 176.968 72.856 172.073H195.216C195.071 176.968 191.022 181 186.104 181Z" fill="#F4C433"/>
</g>
<defs>
<clipPath id="clip0_76_713">
<rect width="200" height="181" fill="white"/>
</clipPath>
</defs>
</svg>
