<svg width="200" height="181" viewBox="0 0 200 181" fill="none" xmlns="http://www.w3.org/2000/svg">
<path d="M31.5384 99.3376L32.4957 98.5155C33.0427 98.1044 33.0427 97.4193 32.6324 97.0083L18.547 79.196C18.1367 78.6479 17.453 78.6479 17.0427 79.059L16.0854 79.8811C15.5384 80.2922 15.5384 80.9772 15.9487 81.3883L30.0342 99.2006C30.4444 99.7486 31.1282 99.7486 31.5384 99.3376Z" fill="#F9B361"/>
<path opacity="0.19" d="M32.359 97.5563L18.0001 79.607C17.7266 79.333 17.7266 79.0589 17.7266 78.7849C18.0001 78.7849 18.2736 78.9219 18.5471 79.196L32.7693 97.1452C33.0428 97.4193 33.0428 97.8303 33.0428 98.1044C32.9061 97.9673 32.6325 97.8303 32.359 97.5563Z" fill="#FFF6F7"/>
<path d="M40.8376 95.2271L41.9316 94.679C42.4786 94.405 42.7521 93.7199 42.4786 93.1718L32.7692 72.6192C32.4957 72.0711 31.8119 71.7971 31.2649 72.0711L30.1709 72.6192C29.6239 72.8932 29.3504 73.5783 29.6239 74.1264L39.3333 94.679C39.6068 95.2271 40.2906 95.5011 40.8376 95.2271Z" fill="#F9B361"/>
<path opacity="0.19" d="M41.9316 93.5828L32.2222 72.7562C32.0854 72.4821 32.0854 72.0711 32.0854 71.9341C32.359 71.9341 32.6325 72.2081 32.7692 72.4822L42.6154 93.3088C42.7521 93.5828 42.7521 93.9939 42.6154 94.2679C42.3419 94.1309 42.2051 93.8569 41.9316 93.5828Z" fill="#FFF6F7"/>
<path d="M31.1282 100.297L31.9488 99.3375C32.359 98.9265 32.359 98.2414 31.812 97.6933L15.1282 82.4844C14.718 82.0734 14.0342 82.0734 13.4872 82.6214L12.6667 83.5805C12.2564 83.9916 12.2564 84.6767 12.8035 85.2248L29.4872 100.434C30.0342 100.845 30.718 100.845 31.1282 100.297Z" fill="#F9B361"/>
<path opacity="0.19" d="M31.5384 98.3784L14.5812 82.8955C14.3077 82.6214 14.1709 82.3474 14.1709 82.0734C14.4444 82.0734 14.8547 82.0734 15.1282 82.3474L32.0854 97.8304C32.3589 98.1044 32.4957 98.3784 32.4957 98.6525C32.0854 98.7895 31.8119 98.6525 31.5384 98.3784Z" fill="#FFF6F7"/>
<path d="M36.3247 96.5972L37.4187 95.9121C37.9657 95.6381 38.1025 94.953 37.6922 94.4049L25.3845 75.3595C25.111 74.8114 24.4273 74.6744 23.8803 75.0854L22.6495 75.6335C22.1025 75.9075 21.9657 76.5926 22.376 77.1407L34.6837 96.1861C35.0939 96.7342 35.7777 96.8712 36.3247 96.5972Z" fill="#F9B361"/>
<path opacity="0.19" d="M37.1454 94.816L24.701 75.4965C24.5642 75.2225 24.4275 74.8115 24.4275 74.6744C24.701 74.6744 24.9745 74.8115 25.248 75.2225L37.6924 94.4049C37.8292 94.679 37.966 95.09 37.8292 95.3641C37.6924 95.3641 37.4189 95.09 37.1454 94.816Z" fill="#FFF6F7"/>
<path d="M30.5811 105.092L31.4016 104.133C31.8119 103.722 31.8119 103.037 31.2649 102.489L14.5811 87.2801C14.1709 86.869 13.4871 86.869 12.9401 87.4171L12.1196 88.3762C11.7093 88.7873 11.7093 89.4723 12.2563 90.0204L28.9401 105.366C29.4871 105.64 30.1709 105.64 30.5811 105.092Z" fill="#F9B361"/>
<path opacity="0.19" d="M30.9915 103.174L14.0343 87.6911C13.7608 87.4171 13.624 87.1431 13.624 86.869C13.8975 86.869 14.3078 86.869 14.4445 87.143L31.4018 102.763C31.6753 103.037 31.8121 103.311 31.8121 103.585C31.5386 103.585 31.2651 103.448 30.9915 103.174Z" fill="#FFF6F7"/>
<path d="M39.7438 97.2823L40.8378 96.5972C41.3848 96.3231 41.5215 95.6381 41.248 95.09L29.4873 75.6335C29.2138 75.0854 28.5301 74.9484 27.9831 75.2225L26.8891 75.9076C26.342 76.1816 26.2053 76.8667 26.4788 77.4147L38.2395 96.8712C38.6497 97.4193 39.3335 97.6933 39.7438 97.2823Z" fill="#F9B361"/>
<path opacity="0.19" d="M40.7009 95.6381L28.8035 75.9076C28.6668 75.6335 28.53 75.2225 28.6668 75.0854C28.9403 75.0854 29.2138 75.3595 29.4873 75.6335L41.3847 95.364C41.5215 95.6381 41.6582 96.0491 41.5215 96.3232C41.2479 96.0491 40.9744 95.9121 40.7009 95.6381Z" fill="#FFF6F7"/>
<path d="M35.6411 99.8856L36.5984 99.0635C37.1454 98.6525 37.1454 97.9674 36.8719 97.5563L23.1967 79.47C22.7864 78.922 22.1027 78.922 21.6924 79.196L20.7351 80.0181C20.1881 80.4292 20.1881 81.1142 20.4616 81.5253L34.2736 99.6116C34.5471 100.16 35.2309 100.16 35.6411 99.8856Z" fill="#F9B361"/>
<path opacity="0.19" d="M36.4615 97.9674L22.5128 79.7441C22.2393 79.4701 22.2393 79.196 22.2393 78.922C22.5128 78.922 22.7863 79.059 23.0598 79.3331L37.0085 97.5564C37.282 97.8304 37.282 98.2415 37.1452 98.5155C37.0085 98.5155 36.735 98.2415 36.4615 97.9674Z" fill="#FFF6F7"/>
<path d="M37.2821 77.4148C35.9145 78.2369 35.094 79.7441 35.094 81.5254C34.9573 85.3618 32.6325 89.0613 28.9402 91.1166C25.6581 92.8978 22.1026 93.0348 19.094 91.8017C17.7265 91.1166 16.0855 91.3906 14.8547 92.2127L14.3077 92.6238C13.6239 93.1718 13.3504 94.131 13.8974 94.679L20.4615 101.667L30.9915 113.176C31.4017 113.587 32.0855 113.724 32.4957 113.313L38.1026 108.244C38.6496 107.696 39.3333 107.285 40.0171 106.874L47.5385 102.763C48.0855 102.489 48.2222 101.804 47.9487 101.256L43.5727 89.8834L39.3333 78.0999C39.0598 77.1408 37.9658 76.8668 37.2821 77.4148Z" fill="#F8C220"/>
<path d="M23.8804 99.2005L17.3163 92.2126C17.0428 91.9386 17.0428 91.6645 17.0428 91.3905C16.2223 91.3905 15.4017 91.6645 14.718 92.0756L14.171 92.4866C13.4872 93.0347 13.2137 93.9938 13.7607 94.5419L20.3248 101.53L30.8547 113.039C31.265 113.45 31.9488 113.587 32.359 113.176L34.8205 110.984C34.6838 110.984 34.547 110.847 34.4103 110.71L23.8804 99.2005Z" fill="#FFD864"/>
<path d="M12.2563 44.5306C12.2563 44.5306 6.64944 44.6676 6.37593 40.009C6.23918 38.3648 7.19644 36.7206 8.01696 35.3504C9.24773 33.2952 10.8888 30.9659 12.393 29.1847C18.2734 22.3338 23.7435 19.0454 31.2648 15.894C33.3161 15.0719 38.3759 13.8387 40.7007 15.0719C41.5212 15.4829 42.205 16.305 42.6152 17.1271C42.8888 17.8122 43.1623 18.4973 43.0255 19.1824C42.752 21.6487 40.017 23.4299 38.3759 24.8001C36.0511 26.7183 33.7264 28.4996 31.2648 30.4178C25.9315 34.5283 20.5982 38.5018 15.1281 42.6124C14.5811 43.0234 14.0341 43.4345 13.487 43.8455C13.3503 43.8455 12.6665 44.5306 12.2563 44.5306Z" fill="#FFD147"/>
<path opacity="0.25" d="M13.6239 43.5715C14.1709 43.1605 14.7179 42.7494 15.2649 42.3384C20.735 38.3649 26.0683 34.2543 31.4016 30.1438C33.7264 28.3626 36.188 26.4443 38.5127 24.5261C40.1538 23.1559 43.0256 21.3747 43.1623 18.9084C43.1623 18.3603 43.1623 17.8123 42.8888 17.2642C40.2905 16.4421 35.7777 17.5382 33.9999 18.3603C26.3418 21.5117 20.8717 24.8001 15.1281 31.651C13.6239 33.4322 11.9828 35.8986 10.7521 37.8168C9.93155 39.187 8.97429 40.8312 9.11104 42.6124C9.11104 43.0235 9.24779 43.4345 9.38454 43.7085C10.8888 44.3936 12.5298 44.3936 12.5298 44.3936C12.6666 44.5306 13.3504 43.8456 13.6239 43.5715Z" fill="#F9D362"/>
<path d="M11.9829 43.7085C11.9829 44.1195 12.2564 44.5306 12.5299 44.8046C16.0855 46.8599 37.4188 57.4102 46.9915 62.2058C48.906 63.165 51.094 61.5207 50.6838 59.3285C48.359 48.093 42.8889 22.4708 41.7949 20.0045C40.2906 16.8531 12.3932 29.4587 11.9829 43.7085Z" fill="#DBAD24"/>
<path d="M12.2563 41.5163C12.2563 41.3793 12.3931 41.2422 12.3931 41.1052C12.2563 41.2422 12.2563 41.3793 12.2563 41.5163Z" fill="#DB9F24"/>
<path d="M12.53 40.2832C12.53 40.1462 12.6668 40.0091 12.6668 39.7351C12.6668 39.8721 12.6668 40.1462 12.53 40.2832Z" fill="#DB9F24"/>
<path d="M14.8547 35.8985C14.9915 35.7615 15.1282 35.4875 15.265 35.3505C15.1282 35.4875 14.9915 35.6245 14.8547 35.8985Z" fill="#DB9F24"/>
<path d="M14.0342 37.1317C14.1709 36.9947 14.3077 36.7206 14.4444 36.5836C14.3077 36.7206 14.1709 36.8577 14.0342 37.1317Z" fill="#DB9F24"/>
<path d="M14.4446 36.4466C14.5813 36.3096 14.7181 36.0356 14.8548 35.8986C14.5813 36.0356 14.5813 36.3096 14.4446 36.4466Z" fill="#DB9F24"/>
<path d="M13.4873 41.6533C13.4873 42.0644 13.7608 42.4754 14.0343 42.7494C17.5899 44.8047 38.9232 55.355 48.4959 60.1507C49.1796 60.5617 50.0001 60.5617 50.5471 60.2877C50.5471 60.0136 50.5471 59.7396 50.5471 59.4656C48.2223 48.2301 42.7523 22.6079 41.6582 20.1416C40.5642 17.6753 22.6497 25.0742 15.1283 35.4875C15.5386 34.9394 16.0856 34.2544 16.6326 33.7063C14.8548 36.0356 13.6241 38.9129 13.4873 41.6533Z" fill="#F9D361"/>
<path d="M13.0769 38.9129C13.2137 38.7759 13.2137 38.5019 13.3504 38.3649C13.2137 38.6389 13.0769 38.7759 13.0769 38.9129Z" fill="#DB9F24"/>
<path d="M13.624 37.6798C13.7608 37.5428 13.8975 37.2687 13.8975 37.1317C13.8975 37.4057 13.7608 37.5428 13.624 37.6798Z" fill="#DB9F24"/>
<path d="M12.8035 39.598C12.8035 39.461 12.9402 39.1869 13.077 39.0499C12.9402 39.324 12.8035 39.461 12.8035 39.598Z" fill="#DB9F24"/>
<path d="M49.8633 61.7948L49.7266 61.9318C49.7266 61.9318 49.7266 61.9318 49.8633 61.7948Z" fill="#DB9F24"/>
<path d="M49.5899 62.0688L49.4531 62.2059C49.4531 62.0689 49.5899 62.0688 49.5899 62.0688Z" fill="#DB9F24"/>
<path d="M50.1368 61.6578L50 61.7949C50 61.6578 50 61.6578 50.1368 61.6578Z" fill="#DB9F24"/>
<path d="M50.6837 60.2877C50.6837 60.8358 50.4102 61.2468 50.1367 61.6579C50.4102 61.2468 50.6837 60.6988 50.6837 60.2877Z" fill="#DB9F24"/>
<path d="M49.3162 62.2059C49.1795 62.2059 49.1795 62.3429 49.0427 62.3429C49.1795 62.2059 49.1795 62.2059 49.3162 62.2059Z" fill="#DB9F24"/>
<path d="M12.2563 44.6676C12.3931 44.8046 12.3931 44.8046 12.5299 44.8046C12.6666 44.9416 12.8034 44.9416 13.0769 45.0787C12.9401 44.9416 12.6666 44.9416 12.5299 44.8046C12.3931 44.8046 12.3931 44.6676 12.2563 44.6676Z" fill="#DB9F24"/>
<path d="M50.1367 61.5208C50.4102 61.1098 50.6837 60.6987 50.6837 60.1506C50.6837 60.6987 50.4102 61.2468 50.1367 61.5208Z" fill="#DB9F24"/>
<path d="M49.3162 62.2059C49.4529 62.2059 49.4529 62.0688 49.5897 62.0688C49.5897 62.0688 49.4529 62.0689 49.3162 62.2059Z" fill="#DB9F24"/>
<path d="M48.6326 62.3429H48.4958C48.6326 62.3429 48.7693 62.343 48.7693 62.2059C48.7693 62.343 48.7694 62.3429 48.6326 62.3429Z" fill="#DB9F24"/>
<path d="M14.4446 36.4466C14.5813 36.3096 14.7181 36.0356 14.8548 35.8986C14.5813 36.0356 14.5813 36.3096 14.4446 36.4466Z" fill="#DB9F24"/>
<path d="M50.1368 61.6578L50 61.7949C50 61.6578 50 61.6578 50.1368 61.6578Z" fill="#DB9F24"/>
<path d="M12.1197 42.3384C12.1197 42.4754 12.1197 42.6124 12.1197 42.8864C11.9829 42.7494 11.9829 42.6124 12.1197 42.3384Z" fill="#DB9F24"/>
<path d="M12.2564 41.5162C12.2564 41.3792 12.3931 41.2422 12.3931 41.1052V40.9682C12.3931 40.8312 12.5299 40.6941 12.5299 40.5571C12.3931 41.1052 12.2564 41.7903 12.1196 42.3384C12.1196 42.2013 12.1196 42.0643 12.2564 41.9273C12.1196 41.6533 12.2564 41.6533 12.2564 41.5162Z" fill="#DB9F24"/>
<path d="M14.8547 35.8985C14.9915 35.7615 15.1282 35.4875 15.265 35.3505C15.1282 35.4875 14.9915 35.6245 14.8547 35.8985Z" fill="#DB9F24"/>
<path d="M49.3162 62.2059C49.1795 62.2059 49.1795 62.3429 49.0427 62.3429C49.1795 62.2059 49.1795 62.2059 49.3162 62.2059Z" fill="#DB9F24"/>
<path d="M14.4444 36.4467C14.3077 36.5837 14.1709 36.8577 14.0342 36.9947C14.1709 36.8577 14.3077 36.7207 14.4444 36.4467Z" fill="#DB9F24"/>
<path d="M15.2649 35.2135C15.5384 34.9394 15.6751 34.6654 15.9487 34.3914C15.6751 34.6654 15.4016 34.9394 15.2649 35.2135Z" fill="#DB9F24"/>
<path d="M49.8633 61.7948L49.7266 61.9318C49.7266 61.9318 49.7266 61.9318 49.8633 61.7948Z" fill="#DB9F24"/>
<path d="M14.0343 37.1317C13.8975 37.2687 13.7608 37.5428 13.624 37.6798C13.7608 37.5428 13.8975 37.4057 14.0343 37.1317Z" fill="#DB9F24"/>
<path d="M12.8035 39.735C12.8035 39.872 12.6667 40.146 12.6667 40.2831C12.6667 40.146 12.6667 39.872 12.8035 39.735Z" fill="#DB9F24"/>
<path d="M13.077 39.05C13.2137 38.7759 13.3505 38.6389 13.3505 38.3649C13.2137 38.7759 12.9402 39.187 12.8035 39.598V39.461C12.8035 39.461 12.9402 39.324 13.077 39.05Z" fill="#DB9F24"/>
<path d="M32.608 39.166C36.2217 38.8744 38.9152 35.7029 38.6241 32.0822C38.3331 28.4616 35.1677 25.7628 31.5541 26.0544C27.9404 26.346 25.2469 29.5175 25.5379 33.1382C25.829 36.7588 28.9944 39.4576 32.608 39.166Z" fill="#FF5E4D"/>
<path d="M32.4723 37.1137C35.1072 36.9011 37.0713 34.5886 36.8591 31.9485C36.6469 29.3084 34.3388 27.3406 31.7039 27.5532C29.0689 27.7658 27.1049 30.0783 27.3171 32.7184C27.5292 35.3584 29.8373 37.3263 32.4723 37.1137Z" fill="#F94A3D"/>
<g opacity="0.23">
<path d="M47.3429 53.4389C47.6598 53.2332 47.7502 52.809 47.5448 52.4914C47.3395 52.1739 46.9161 52.0833 46.5992 52.2891C46.2823 52.4948 46.1919 52.919 46.3972 53.2365C46.6026 53.5541 47.026 53.6447 47.3429 53.4389Z" fill="#FFA35D"/>
<path d="M20.4122 36.8608C20.7291 36.655 20.8195 36.2308 20.6142 35.9133C20.4088 35.5958 19.9854 35.5052 19.6685 35.7109C19.3516 35.9167 19.2612 36.3409 19.4666 36.6584C19.6719 36.9759 20.0953 37.0665 20.4122 36.8608Z" fill="#FFA35D"/>
<path d="M39.9615 47.1567C40.2784 46.9509 40.3689 46.5267 40.1635 46.2092C39.9581 45.8917 39.5348 45.8011 39.2179 46.0068C38.9009 46.2126 38.8105 46.6368 39.0159 46.9543C39.2212 47.2718 39.6446 47.3624 39.9615 47.1567Z" fill="#FFA35D"/>
<path d="M46.5061 55.5594C46.6962 55.4359 46.7504 55.1814 46.6272 54.9909C46.504 54.8004 46.2499 54.7461 46.0598 54.8696C45.8697 54.993 45.8155 55.2476 45.9387 55.4381C46.062 55.6285 46.316 55.6829 46.5061 55.5594Z" fill="#FFA35D"/>
<path d="M37.7264 49.5846C37.7898 49.5435 37.8078 49.4586 37.7668 49.3951C37.7257 49.3316 37.641 49.3135 37.5776 49.3547C37.5143 49.3958 37.4962 49.4807 37.5373 49.5442C37.5783 49.6077 37.663 49.6258 37.7264 49.5846Z" fill="#FFA35D"/>
<path d="M39.2403 29.2823C39.3037 29.2411 39.3218 29.1563 39.2807 29.0928C39.2396 29.0293 39.155 29.0111 39.0916 29.0523C39.0282 29.0935 39.0101 29.1783 39.0512 29.2418C39.0923 29.3053 39.1769 29.3234 39.2403 29.2823Z" fill="#FFA35D"/>
<path d="M22.1336 45.3125C22.197 45.2714 22.2151 45.1865 22.174 45.123C22.1329 45.0595 22.0483 45.0414 21.9849 45.0826C21.9215 45.1237 21.9034 45.2086 21.9445 45.2721C21.9856 45.3356 22.0703 45.3537 22.1336 45.3125Z" fill="#FFA35D"/>
<path d="M38.9852 54.7719C39.0486 54.7307 39.0667 54.6459 39.0256 54.5824C38.9845 54.5189 38.8998 54.5008 38.8364 54.5419C38.7731 54.5831 38.755 54.6679 38.7961 54.7314C38.8371 54.7949 38.9218 54.8131 38.9852 54.7719Z" fill="#FFA35D"/>
<path d="M24.9403 31.0769C25.0036 31.0358 25.0217 30.9509 24.9806 30.8874C24.9396 30.8239 24.8549 30.8058 24.7915 30.847C24.7281 30.8881 24.7101 30.973 24.7511 31.0365C24.7922 31.1 24.8769 31.1181 24.9403 31.0769Z" fill="#FFA35D"/>
<path d="M16.8214 38.8753C16.8848 38.8341 16.9028 38.7493 16.8618 38.6858C16.8207 38.6223 16.736 38.6042 16.6726 38.6453C16.6092 38.6865 16.5912 38.7713 16.6322 38.8348C16.6733 38.8983 16.758 38.9165 16.8214 38.8753Z" fill="#FFA35D"/>
<path d="M41.1812 22.8552C41.2446 22.814 41.2627 22.7292 41.2216 22.6656C41.1805 22.6021 41.0959 22.584 41.0325 22.6252C40.9691 22.6663 40.951 22.7512 40.9921 22.8147C41.0332 22.8782 41.1179 22.8963 41.1812 22.8552Z" fill="#FFA35D"/>
<path d="M44.0644 54.1572C44.2546 54.0337 44.3088 53.7792 44.1856 53.5887C44.0623 53.3982 43.8083 53.3439 43.6182 53.4673C43.428 53.5908 43.3738 53.8453 43.4971 54.0358C43.6203 54.2263 43.8743 54.2806 44.0644 54.1572Z" fill="#FFA35D"/>
<path d="M21.5897 41.0747C21.7165 40.9924 21.7527 40.8227 21.6705 40.6957C21.5884 40.5687 21.419 40.5325 21.2923 40.6148C21.1655 40.6971 21.1293 40.8668 21.2115 40.9938C21.2936 41.1208 21.463 41.157 21.5897 41.0747Z" fill="#FFA35D"/>
<path d="M37.2161 22.9393C37.4062 22.8158 37.4604 22.5613 37.3372 22.3708C37.2139 22.1803 36.9599 22.126 36.7698 22.2495C36.5797 22.3729 36.5254 22.6274 36.6487 22.8179C36.7719 23.0084 37.0259 23.0628 37.2161 22.9393Z" fill="#FFA35D"/>
</g>
<path d="M42.4786 46.0378C42.7521 48.9151 45.2136 51.1074 48.0854 50.8334C48.3589 50.8334 48.6324 50.8334 48.7692 50.6963C48.0854 47.4079 47.2649 43.9825 46.5811 40.42C44.1196 40.9681 42.3418 43.4344 42.4786 46.0378Z" fill="#FF5E4D"/>
<path d="M43.8461 45.7637C43.9829 47.819 45.7607 49.3262 47.8119 49.1892C47.9487 49.1892 48.2222 49.1892 48.3589 49.0522C47.8119 46.7229 47.4017 44.2565 46.8547 41.9272C44.9401 42.2013 43.5726 43.8455 43.8461 45.7637Z" fill="#F94A3D"/>
<path d="M21.4188 41.7902C21.2821 41.7902 21.0086 41.7902 20.8718 41.6532C20.4616 41.5162 20.1881 41.1051 19.9146 40.5571C19.7778 40.146 19.7778 39.598 19.9146 39.1869C20.0513 38.9129 20.3248 38.6388 20.5983 38.5018C20.8718 38.3648 21.2821 38.3648 21.5556 38.5018C21.9659 38.6388 22.2394 39.0499 22.5129 39.5979C22.7864 40.4201 22.5129 41.3792 21.6924 41.6532C21.6924 41.7902 21.5556 41.7902 21.4188 41.7902ZM21.1453 39.4609C21.0086 39.4609 21.0086 39.4609 21.1453 39.4609C21.0086 39.4609 20.8718 39.5979 20.8718 39.5979C20.7351 39.735 20.7351 40.009 20.8718 40.146C21.0086 40.4201 21.1453 40.5571 21.2821 40.5571C21.2821 40.5571 21.4189 40.5571 21.5556 40.5571C21.6924 40.5571 21.8291 40.146 21.6924 39.735C21.5556 39.4609 21.4188 39.3239 21.2821 39.3239C21.1453 39.4609 21.1453 39.4609 21.1453 39.4609Z" fill="#390028"/>
<path d="M37.2819 45.3527C36.5981 45.3527 36.0511 44.9416 35.7776 44.2565C35.6409 43.8455 35.6409 43.4344 35.7776 43.0234C35.9144 42.7493 36.1879 42.4753 36.4614 42.4753C37.1451 42.2013 38.1024 42.6123 38.3759 43.4344C38.6494 44.2565 38.3759 45.0786 37.5554 45.2156C37.5554 45.3527 37.4186 45.3527 37.2819 45.3527ZM37.0084 43.4344C36.8716 43.4344 36.7349 43.5714 36.7349 43.5714C36.5981 43.7084 36.5981 43.8455 36.7349 44.1195C36.8716 44.3935 37.1451 44.6676 37.2819 44.5306C37.4186 44.5306 37.5554 44.1195 37.4186 43.8455C37.4186 43.5714 37.1451 43.4344 37.0084 43.4344Z" fill="#390028"/>
<path d="M43.7092 55.2179C43.5725 55.2179 43.299 55.2179 43.1622 55.0809C42.8887 54.9439 42.6152 54.6698 42.6152 54.3958C42.4785 54.1218 42.6152 53.8477 42.6152 53.7107C42.752 53.4367 42.8887 53.2997 43.1622 53.2997C43.4357 53.1627 43.7092 53.2997 43.9827 53.4367C44.5298 53.7107 44.8033 54.2588 44.5298 54.8069C44.393 55.0809 44.1195 55.2179 43.846 55.3549C43.846 55.2179 43.846 55.2179 43.7092 55.2179Z" fill="#390028"/>
<path d="M40.9743 26.9924C40.7008 26.9924 40.4273 26.9924 40.1538 26.7183C39.3333 26.3073 38.9231 25.3482 39.3333 24.6631C39.7436 23.978 40.7008 23.704 41.5213 24.115C41.9316 24.252 42.2051 24.6631 42.3419 24.9371C42.4786 25.3482 42.4786 25.7592 42.3419 26.1703C42.0684 26.7183 41.5213 26.9924 40.9743 26.9924ZM40.5641 25.0741C40.4273 25.0741 40.2906 25.0741 40.1538 25.2111C40.0171 25.3482 40.1538 25.7592 40.5641 25.8962C40.9743 26.0332 41.2478 26.0332 41.3846 25.7592C41.3846 25.6222 41.3846 25.4852 41.3846 25.4852C41.2478 25.3482 41.1111 25.2111 40.9743 25.0741C40.8376 25.0741 40.7008 25.0741 40.5641 25.0741Z" fill="#390028"/>
<path d="M27.8462 46.0378C25.5214 46.1748 23.6069 47.9561 22.9231 50.1483C25.9316 51.6555 29.3504 53.4368 32.6325 55.081C33.453 53.9848 33.8633 52.6147 33.7265 51.2445C33.5898 48.0931 30.9915 45.9008 27.8462 46.0378Z" fill="#FF5E4D"/>
<path d="M27.9829 47.5451C26.2051 47.6821 24.7008 49.0523 24.1538 50.6965C26.4786 51.9296 29.0769 53.1628 31.6752 54.533C32.3589 53.7109 32.6324 52.6147 32.4957 51.5186C32.4957 49.0523 30.4444 47.4081 27.9829 47.5451Z" fill="#F94A3D"/>
<path d="M27.8461 142.909L15.1281 137.428C13.3503 136.606 12.5298 134.551 13.2136 132.77L16.9059 124.275L36.5982 132.77L33.0427 140.991C32.2221 142.909 29.8973 143.731 27.8461 142.909Z" fill="#390028"/>
<path d="M36.5478 132.677C37.3253 130.87 33.57 127.511 28.1603 125.175C22.7506 122.838 17.7349 122.408 16.9574 124.215C16.18 126.022 19.9353 129.381 25.345 131.717C30.7547 134.054 35.7704 134.484 36.5478 132.677Z" fill="#F8F8EE"/>
<path d="M29.7217 129.334C29.961 128.778 28.8617 127.769 27.2665 127.08C25.6714 126.391 24.1843 126.283 23.9451 126.839C23.7059 127.395 24.8051 128.404 26.4003 129.093C27.9955 129.782 29.4825 129.89 29.7217 129.334Z" fill="#F94A3D"/>
<path opacity="0.11" d="M27.9827 126.878C27.8459 126.878 27.8459 126.878 27.8459 126.741C27.7092 126.33 27.5724 125.919 27.2989 125.782C27.1622 125.645 26.8887 125.645 26.7519 125.645C26.6152 125.645 26.4784 125.782 26.4784 125.919L26.3417 126.056C26.2049 126.056 26.2049 125.919 26.2049 125.919C26.2049 125.782 26.2049 125.645 26.0682 125.508C26.0682 125.371 25.9314 125.371 25.7947 125.371C25.6579 125.371 25.6579 125.508 25.5212 125.645C25.3844 125.919 25.2477 126.193 25.2477 126.33C25.2477 126.467 25.1109 126.467 24.9742 126.467C24.8374 126.467 24.8374 126.33 24.8374 126.193C24.9742 125.919 25.1109 125.645 25.2477 125.371C25.3844 125.234 25.5212 125.097 25.7947 124.96C26.0682 124.96 26.2049 125.097 26.3417 125.234C26.3417 125.371 26.4784 125.371 26.4784 125.508C26.6152 125.508 26.6152 125.371 26.7519 125.371C27.0254 125.371 27.2989 125.371 27.5724 125.508C27.9827 125.782 28.1195 126.33 28.2562 126.741C28.2562 126.741 28.1195 126.878 27.9827 126.878Z" fill="#390028"/>
<g opacity="0.11">
<path d="M22.2391 124.96H22.1023C21.9656 124.823 21.8288 124.686 21.9656 124.549C22.1023 124.412 22.2391 124.275 22.3758 124.412C22.5126 124.412 22.5126 124.549 22.5126 124.549C22.5126 124.686 22.5126 124.686 22.5126 124.823C22.6493 124.823 22.5126 124.96 22.2391 124.96C22.3758 124.96 22.3758 124.96 22.2391 124.96Z" fill="#390028"/>
<path d="M19.6409 125.097H19.5042C19.3674 125.097 19.3674 124.96 19.3674 124.96C19.3674 124.823 19.3674 124.823 19.3674 124.686C19.3674 124.549 19.5042 124.549 19.5042 124.549C19.6409 124.549 19.6409 124.549 19.7777 124.549C19.9144 124.549 19.9144 124.686 19.9144 124.686C19.9144 124.823 19.9144 124.823 19.9144 124.96C19.9144 124.96 19.7777 125.097 19.6409 125.097Z" fill="#390028"/>
<path d="M21.4185 126.604C21.2818 126.604 21.2818 126.604 21.145 126.604C20.8715 126.467 20.7348 126.193 20.8715 125.919C21.0083 125.645 21.2818 125.508 21.5553 125.645C21.8288 125.782 21.9655 126.056 21.8288 126.33C21.8288 126.467 21.692 126.604 21.5553 126.604C21.5553 126.604 21.5553 126.604 21.4185 126.604ZM21.4185 125.919C21.2818 125.919 21.2818 125.919 21.2818 126.056V126.193C21.2818 126.193 21.2818 126.33 21.4185 126.33H21.5553C21.5553 126.33 21.692 126.33 21.692 126.193C21.692 126.056 21.692 126.056 21.4185 125.919C21.5553 125.919 21.5553 125.919 21.4185 125.919Z" fill="#390028"/>
</g>
<g opacity="0.11">
<path d="M33.3162 131.126H33.1795C33.0427 131.126 33.0427 130.989 33.0427 130.989C33.0427 130.852 33.0427 130.852 33.0427 130.715C33.0427 130.578 33.1795 130.578 33.1795 130.578C33.3162 130.578 33.3162 130.578 33.453 130.578C33.5897 130.578 33.5897 130.715 33.5897 130.715C33.5897 130.852 33.5897 130.852 33.5897 130.989C33.5897 130.989 33.5897 130.989 33.3162 131.126Z" fill="#390028"/>
<path d="M30.5811 131.126H30.4444C30.3076 131.126 30.3076 130.989 30.3076 130.989C30.3076 130.852 30.3076 130.852 30.3076 130.715C30.3076 130.578 30.4444 130.578 30.4444 130.578C30.5811 130.578 30.5811 130.578 30.7179 130.578C30.8546 130.715 30.9914 130.852 30.8546 130.989C30.8546 131.126 30.7179 131.126 30.5811 131.126Z" fill="#390028"/>
<path d="M32.4957 132.77C32.3589 132.77 32.3589 132.77 32.2222 132.77C31.9487 132.633 31.8119 132.359 31.9487 132.085C31.9487 131.948 32.0854 131.811 32.2222 131.811C32.3589 131.811 32.4957 131.811 32.6324 131.811C32.7692 131.811 32.9059 131.948 32.9059 132.085C32.9059 132.222 32.9059 132.359 32.9059 132.496C32.9059 132.633 32.6324 132.77 32.4957 132.77ZM32.4957 131.948C32.3589 131.948 32.3589 131.948 32.3589 132.085C32.3589 132.222 32.3589 132.359 32.4957 132.359C32.6324 132.359 32.7692 132.359 32.7692 132.222V132.085C32.6324 132.085 32.6324 132.085 32.4957 131.948Z" fill="#390028"/>
</g>
<path d="M189.35 53.9848L146 37.9538C144.906 37.5427 144.359 36.4466 144.769 35.3505C145.179 34.2543 146.273 33.7063 147.367 34.1173L190.718 50.1483C191.812 50.5594 192.359 51.6555 191.949 52.7517C191.538 53.8478 190.444 54.3959 189.35 53.9848Z" fill="#470B1B"/>
<path d="M190.171 49.8744L181.282 46.586C181.145 46.586 180.872 46.449 180.735 46.586L176.906 47.2711C176.632 47.2711 176.222 47.2711 175.949 46.997L172.803 43.5716C172.666 43.4346 172.53 43.4346 172.393 43.2976L148.051 34.3914C147.641 34.2544 147.367 33.8434 147.504 33.5693L148.325 31.5141C148.461 31.24 148.872 31.103 149.282 31.24L191.265 46.586C191.675 46.723 191.949 47.134 191.812 47.4081L190.991 49.4633C190.991 49.8744 190.581 50.0114 190.171 49.8744Z" fill="#DB9F24"/>
<path d="M186.752 56.0401L146.547 41.2422C146 41.1052 145.726 40.4201 146 39.872L146.41 38.9129C146.547 38.3648 147.231 38.0908 147.778 38.3648L187.983 53.1627C188.53 53.2997 188.803 53.9848 188.53 54.5329L188.12 55.492C187.846 56.0401 187.299 56.1771 186.752 56.0401Z" fill="#F94A3D"/>
<path opacity="0.74" d="M187.983 54.2589L146.684 39.0499C146.41 38.9129 146.273 38.6389 146.41 38.5019C146.547 38.2278 146.82 38.0908 146.957 38.2278L188.256 53.4368C188.53 53.5738 188.667 53.8478 188.53 53.9848C188.53 54.2589 188.256 54.2589 187.983 54.2589Z" fill="#EC6565"/>
<path d="M178.684 62.0688L148.872 51.1075C145.179 49.7373 142.991 46.4489 143.949 43.7085L145.179 40.2831L188.393 56.3141L187.162 59.7396C186.205 62.3429 182.376 63.439 178.684 62.0688Z" fill="#FFAC79"/>
<path opacity="0.25" d="M188.53 56.3141L186.342 55.492C184.974 57.6843 181.555 58.5064 178.137 57.2732L152.974 47.9561C149.555 46.7229 147.367 43.8455 147.914 41.2422L145.316 40.2831L144.085 43.7085C143.128 46.4489 145.316 49.7373 149.008 51.1075L178.82 62.0688C182.513 63.439 186.342 62.3429 187.299 59.6025L188.53 56.3141Z" fill="#F97762"/>
<path d="M193.043 47.819L147.094 30.8289C150.376 21.9227 160.769 17.4012 170.342 20.9636L181.829 25.2112C191.265 28.6366 196.325 38.7759 193.043 47.819Z" fill="#FFB6AF"/>
<path opacity="0.08" d="M193.043 47.819L147.094 30.8289C150.376 21.9227 160.769 17.4012 170.342 20.9636L181.829 25.2112C191.265 28.6366 196.325 38.7759 193.043 47.819Z" fill="#FFF6F7"/>
<path d="M193.043 47.819L147.094 30.8289C150.376 21.9227 160.769 17.4012 170.342 20.9636L181.829 25.2112C191.265 28.6366 196.325 38.7759 193.043 47.819Z" fill="#FFAC79"/>
<path opacity="0.25" d="M188.12 28.9107C188.12 29.0477 188.12 29.0477 188.12 28.9107C191.675 33.8433 186.752 40.2831 181.145 38.2279L160.496 30.6919C156.393 29.1847 155.846 23.567 159.675 21.3747C161.043 20.5526 162.547 20.0045 164.051 19.7305C156.667 19.5935 149.692 23.841 147.231 30.8289L193.179 47.8191C195.504 41.1052 193.316 33.7063 188.12 28.9107Z" fill="#F97762"/>
<path d="M174.307 27.5405C174.034 27.5405 173.76 27.5405 173.487 27.4035C173.213 27.2665 172.256 26.9924 172.393 26.4443C172.53 25.8963 173.624 26.1703 173.897 26.1703C174.171 26.3073 175.128 26.5814 174.991 27.1294C174.991 27.4035 174.854 27.5405 174.307 27.5405Z" fill="#F8F8EE"/>
<path d="M180.735 32.0621C180.461 32.0621 180.188 32.0621 179.914 31.9251C179.641 31.7881 178.683 31.5141 178.82 30.966C178.82 30.829 179.094 30.5549 179.504 30.5549C179.777 30.5549 180.051 30.5549 180.324 30.6919C180.598 30.829 181.555 31.103 181.418 31.6511C181.418 31.9251 181.145 32.0621 180.735 32.0621Z" fill="#F8F8EE"/>
<path d="M180.325 27.8145C180.051 27.8145 179.641 27.6775 179.504 27.6775C179.231 27.5405 178.273 27.2664 178.41 26.7184C178.41 26.5813 178.547 26.5813 178.684 26.4443C179.094 26.3073 179.778 26.4443 179.914 26.4443C180.188 26.5813 181.145 26.8554 181.008 27.4034C180.872 27.6775 180.598 27.8145 180.325 27.8145Z" fill="#F8F8EE"/>
<path d="M167.196 27.2665C166.923 27.2665 166.649 27.2665 166.376 27.1295C166.102 26.9924 165.145 26.7184 165.282 26.1703C165.282 26.0333 165.555 25.7593 165.966 25.7593C166.239 25.7593 166.513 25.7593 166.786 25.8963C167.06 26.0333 168.017 26.3073 167.88 26.8554C167.88 26.9924 167.607 27.1295 167.196 27.2665Z" fill="#F8F8EE"/>
<path d="M168.974 23.43C168.7 23.43 168.427 23.43 168.153 23.293C167.88 23.1559 166.923 22.8819 167.059 22.3338C167.059 22.1968 167.196 22.1968 167.333 22.0598C167.743 21.9228 168.427 22.0598 168.564 22.0598C168.837 22.1968 169.794 22.4708 169.658 23.0189C169.658 23.293 169.521 23.43 168.974 23.43Z" fill="#F8F8EE"/>
<path d="M190.581 91.9387L174.034 98.1045C172.393 98.6525 170.615 97.8304 169.931 96.1862L168.701 92.8978C168.153 91.2536 168.974 89.4724 170.615 88.7873L187.162 82.6215C188.803 82.0734 190.581 82.8955 191.265 84.5397L192.495 87.8281C193.042 89.4724 192.222 91.2536 190.581 91.9387Z" fill="white"/>
<path opacity="0.11" d="M174.034 94.542C173.897 94.542 173.897 94.542 174.034 94.542C173.624 94.405 173.35 94.131 173.077 93.7199C172.94 93.5829 172.94 93.3088 173.077 93.0348C173.077 92.8978 173.213 92.7608 173.35 92.7608C173.487 92.7608 173.624 92.7608 173.624 92.7608V92.6238C173.76 92.2127 174.034 92.0757 174.444 92.0757C174.718 92.0757 174.854 92.2127 174.991 92.2127C175.128 92.3497 175.265 92.3497 175.401 92.3497C175.538 92.3497 175.538 92.4867 175.538 92.4867C175.538 92.6238 175.401 92.6238 175.401 92.6238C175.128 92.6238 174.991 92.4867 174.854 92.4867C174.718 92.3497 174.581 92.3497 174.444 92.3497C174.307 92.3497 174.034 92.4867 174.034 92.6238C174.034 92.7608 174.034 92.8978 174.171 93.0348C174.171 93.1718 174.171 93.1718 174.171 93.3088C174.171 93.3088 174.034 93.3088 173.897 93.3088C173.76 93.1718 173.624 93.0348 173.487 93.0348C173.487 93.0348 173.35 93.0348 173.35 93.1718C173.35 93.3088 173.35 93.4459 173.35 93.4459C173.487 93.7199 173.76 93.8569 174.034 93.9939C174.171 93.9939 174.171 94.131 174.171 94.268C174.171 94.542 174.034 94.542 174.034 94.542Z" fill="#390028"/>
<path opacity="0.11" d="M173.213 96.4603C172.94 96.3232 172.666 96.1862 172.53 95.9122C172.393 95.7752 172.393 95.6382 172.393 95.5011C172.393 95.2271 172.666 95.0901 172.94 95.0901C173.213 95.0901 173.35 95.2271 173.487 95.3641C173.624 95.3641 173.624 95.5011 173.487 95.6382C173.487 95.7752 173.35 95.7752 173.213 95.6382C173.077 95.5011 172.94 95.5011 172.803 95.5011C172.666 95.5011 172.666 95.5011 172.666 95.6382C172.666 95.6382 172.666 95.7752 172.666 95.9122C172.803 96.0492 172.94 96.1862 173.077 96.3232C173.213 96.3232 173.213 96.4603 173.213 96.5973C173.35 96.4603 173.35 96.4603 173.213 96.4603Z" fill="#390028"/>
<path opacity="0.11" d="M179.367 90.8427C179.094 90.7056 178.957 90.4316 178.957 90.1576C178.957 89.8835 179.231 89.7465 179.504 89.6095C179.641 89.6095 179.778 89.6095 180.051 89.7465C180.325 89.8835 180.461 90.0205 180.598 90.2946C180.598 90.4316 180.598 90.4316 180.598 90.5686C180.461 90.5686 180.461 90.5686 180.325 90.5686C180.188 90.4316 180.051 90.2946 179.914 90.1576C179.778 90.0206 179.641 90.0205 179.641 90.0205C179.504 90.0205 179.504 90.1576 179.367 90.2946C179.367 90.4316 179.367 90.5686 179.504 90.5686C179.641 90.5686 179.641 90.7056 179.504 90.8427C179.504 90.8427 179.367 90.8427 179.367 90.8427Z" fill="#390028"/>
<path opacity="0.11" d="M180.461 93.72C180.461 93.72 180.325 93.72 180.325 93.5829C180.188 93.3089 180.051 93.0349 179.914 92.7608C179.778 92.4868 179.914 92.3498 179.914 92.2128C180.051 92.0758 180.051 92.0757 180.188 92.0757C180.325 92.0757 180.461 92.0757 180.461 92.0757C180.461 91.9387 180.461 91.6647 180.598 91.5277C180.872 91.2536 181.145 91.2536 181.555 91.3907C181.692 91.3907 181.829 91.3907 181.829 91.5277C181.966 91.5277 182.102 91.6647 182.239 91.6647C182.376 91.6647 182.376 91.8017 182.376 91.8017C182.376 91.9387 182.239 91.9387 182.239 91.9387C182.102 91.9387 181.829 91.8017 181.692 91.8017C181.555 91.8017 181.555 91.8017 181.419 91.6647C181.282 91.6647 181.008 91.5277 180.735 91.8017C180.735 91.8017 180.598 91.9387 180.598 92.0757V92.2128C180.735 92.2128 180.735 92.3498 180.735 92.4868C180.735 92.6238 180.598 92.6238 180.461 92.6238C180.461 92.6238 180.461 92.6238 180.325 92.6238C180.188 92.4868 179.914 92.4868 179.778 92.4868C179.778 92.4868 179.778 92.4868 179.778 92.6238C179.914 92.8979 180.051 93.1719 180.188 93.3089C180.598 93.5829 180.598 93.72 180.461 93.72Z" fill="#390028"/>
<path opacity="0.11" d="M185.931 89.0614C185.931 89.0614 185.795 89.0614 185.795 88.9243C185.658 88.6503 185.521 88.3763 185.521 88.1022C185.521 87.9652 185.521 87.6912 185.658 87.5542C185.795 87.4172 186.068 87.2801 186.342 87.4172C186.478 87.4172 186.478 87.4172 186.615 87.5542C186.615 87.4172 186.615 87.4172 186.752 87.2801C186.889 87.0061 187.162 86.8691 187.436 86.8691C187.983 86.7321 188.393 87.0061 188.667 87.2801C188.803 87.2801 188.803 87.4172 188.667 87.5542C188.667 87.6912 188.53 87.6912 188.393 87.5542C188.12 87.4172 187.709 87.1431 187.299 87.2801C187.162 87.2801 186.889 87.4172 186.889 87.5542C186.889 87.6912 186.752 87.8282 186.752 87.9652C186.752 88.1022 186.752 88.1022 186.615 88.1022H186.479C186.342 87.9652 186.205 87.9652 186.068 87.8282C185.931 87.8282 185.795 87.8282 185.795 87.8282C185.795 87.8282 185.795 87.9652 185.795 88.1022C185.795 88.3763 185.931 88.6503 186.068 88.7873C186.068 88.9243 186.068 89.0614 185.931 89.0614Z" fill="#390028"/>
<path opacity="0.11" d="M188.393 90.5686C188.256 90.5686 188.256 90.4316 188.393 90.5686C188.119 90.2946 187.983 90.0205 187.846 89.7465C187.709 89.4725 187.846 89.1984 187.983 89.0614C188.119 89.0614 188.256 89.0614 188.256 89.0614C188.666 89.0614 188.94 89.3354 189.35 89.4725C189.487 89.4725 189.487 89.6095 189.35 89.7465C189.35 89.8835 189.213 89.8835 189.077 89.7465C188.803 89.6095 188.53 89.4724 188.256 89.3354H188.119C188.119 89.3354 188.119 89.4725 188.119 89.6095C188.119 89.8835 188.256 90.0205 188.393 90.1575C188.53 90.2946 188.53 90.4316 188.393 90.5686Z" fill="#390028"/>
<path d="M190.034 84.5398L169.658 92.0757C168.017 92.6238 166.239 91.8017 165.555 90.1575L164.872 88.3762C164.325 86.732 165.145 84.9508 166.786 84.2657L187.162 76.7298C188.803 76.1817 190.581 77.0038 191.265 78.648L191.949 80.4292C192.496 82.0734 191.675 83.9917 190.034 84.5398Z" fill="#390028"/>
<path opacity="0.3" d="M168.989 83.4691L167.064 84.1786L169.896 91.894L171.822 91.1846L168.989 83.4691Z" fill="#F94A3D"/>
<path opacity="0.3" d="M174.746 81.3995L172.821 82.109L175.654 89.8245L177.579 89.115L174.746 81.3995Z" fill="#F94A3D"/>
<path opacity="0.3" d="M180.773 79.2068L178.847 79.9163L181.68 87.6317L183.605 86.9222L180.773 79.2068Z" fill="#F94A3D"/>
<path opacity="0.3" d="M186.647 77.0199L184.722 77.7294L187.555 85.4448L189.48 84.7353L186.647 77.0199Z" fill="#F94A3D"/>
<path d="M191.128 126.741L176.769 114.273C176.085 113.724 175.128 113.724 174.581 114.41C174.034 115.095 174.034 116.054 174.718 116.602L189.077 129.07C189.761 129.618 190.718 129.618 191.265 128.933C191.812 128.385 191.812 127.289 191.128 126.741Z" fill="#470B1B"/>
<path d="M164.598 154.83L152.974 144.827C152.154 144.142 152.154 142.909 152.701 142.087L171.709 116.739C172.393 115.78 173.761 115.643 174.718 116.328L189.624 129.207C190.444 130.03 190.444 131.4 189.624 132.222L167.333 154.693C166.65 155.378 165.419 155.515 164.598 154.83Z" fill="white"/>
<path d="M166.376 124.001L158.991 133.866L174.581 147.431L183.196 138.662L166.376 124.001Z" fill="#FFD864"/>
<path d="M188.393 133.318L170.889 118.109C170.205 117.561 170.205 116.465 170.752 115.78L171.983 114.41C172.53 113.724 173.624 113.724 174.308 114.273L191.812 129.481C192.496 130.03 192.496 131.126 191.949 131.811L190.718 133.181C190.034 133.866 189.077 133.866 188.393 133.318Z" fill="#FFCC33"/>
<path d="M173.794 138.165C175.281 136.451 175.192 133.935 173.595 132.545C171.999 131.155 169.5 131.418 168.014 133.131C166.528 134.845 166.617 137.361 168.213 138.751C169.809 140.141 172.308 139.878 173.794 138.165Z" fill="#F9CA3D"/>
<path d="M123.436 81.9363C123.573 81.9363 123.71 82.0733 123.983 82.0733C123.71 82.0733 123.573 82.0733 123.436 81.9363Z" fill="#FFAC79"/>
<path d="M134.103 90.0203C134.24 90.1573 134.24 90.1573 134.376 90.2943C134.376 90.1573 134.24 90.1573 134.103 90.0203Z" fill="#FFAC79"/>
<path d="M131.368 87.2799L131.504 87.4169C131.504 87.2799 131.368 87.2799 131.368 87.2799Z" fill="#FFAC79"/>
<path d="M137.248 93.7197C137.385 93.8567 137.385 93.9938 137.522 94.1308C137.522 93.9938 137.385 93.8567 137.248 93.7197Z" fill="#FFAC79"/>
<path d="M133.282 89.0612C133.419 89.1982 133.419 89.1982 133.556 89.3352C133.419 89.1982 133.282 89.1982 133.282 89.0612Z" fill="#FFAC79"/>
<path d="M136.291 92.4866L136.428 92.6236C136.428 92.6236 136.428 92.4866 136.291 92.4866Z" fill="#FFAC79"/>
<path d="M142.991 101.667C143.128 101.804 143.265 102.078 143.402 102.215C143.128 102.078 142.991 101.804 142.991 101.667Z" fill="#FFAC79"/>
<path d="M144.086 103.585C144.222 103.722 144.359 103.996 144.496 104.133C144.359 103.859 144.222 103.722 144.086 103.585Z" fill="#FFAC79"/>
<path d="M141.761 99.8855C141.897 100.023 142.034 100.297 142.171 100.434C142.034 100.297 141.897 100.16 141.761 99.8855Z" fill="#FFAC79"/>
<path d="M138.342 94.9529C138.479 95.0899 138.616 95.2269 138.616 95.3639C138.479 95.2269 138.479 95.0899 138.342 94.9529Z" fill="#FFAC79"/>
<path d="M139.436 96.4601C139.573 96.5971 139.573 96.7341 139.71 96.8711C139.573 96.7341 139.436 96.5971 139.436 96.4601Z" fill="#FFAC79"/>
<path d="M135.197 91.1165C135.334 91.2535 135.334 91.2535 135.334 91.3905C135.334 91.2535 135.197 91.2535 135.197 91.1165Z" fill="#FFAC79"/>
<path d="M127.402 84.1285C127.539 84.1285 127.539 84.2656 127.675 84.2656C127.539 84.1285 127.402 84.1285 127.402 84.1285Z" fill="#FFAC79"/>
<path d="M126.718 83.5804L126.855 83.7175C126.855 83.7175 126.855 83.7175 126.718 83.5804Z" fill="#FFAC79"/>
<path d="M124.94 82.6213C125.077 82.6213 125.077 82.7584 125.214 82.7584C125.077 82.6213 124.94 82.6213 124.94 82.6213Z" fill="#FFAC79"/>
<path d="M124.12 82.2103C124.257 82.2103 124.257 82.2103 124.393 82.3473C124.257 82.3473 124.12 82.2103 124.12 82.2103Z" fill="#FFAC79"/>
<path d="M124.53 82.3473C124.667 82.3473 124.667 82.3473 124.804 82.4843C124.667 82.4843 124.53 82.4843 124.53 82.3473Z" fill="#FFAC79"/>
<path d="M131.231 99.7485L136.701 114.135C140.94 110.847 145.59 105.914 145.59 105.914C145.18 105.229 144.769 104.681 144.496 103.996C144.359 103.859 144.222 103.585 144.086 103.448C143.812 103.037 143.539 102.626 143.265 102.215C143.128 102.078 142.992 101.804 142.855 101.667C142.581 101.256 142.308 100.845 142.034 100.434C141.898 100.297 141.761 100.023 141.624 99.8856C141.351 99.3375 140.94 98.9264 140.667 98.3784C140.667 98.3784 140.667 98.2413 140.53 98.2413C140.12 97.6933 139.846 97.2822 139.436 96.7341C139.299 96.5971 139.299 96.4601 139.163 96.3231C138.889 95.912 138.616 95.638 138.342 95.364C138.205 95.227 138.069 95.0899 138.069 94.9529C137.795 94.6789 137.522 94.2678 137.385 93.9938C137.248 93.8568 137.248 93.7198 137.111 93.5828C136.838 93.1717 136.564 92.8977 136.291 92.4866L136.154 92.3496C135.881 91.9385 135.47 91.5275 135.197 91.2535C135.06 91.1164 135.06 91.1164 135.06 90.9794C134.787 90.7054 134.513 90.4314 134.376 90.1573C134.24 90.0203 134.24 90.0203 134.103 89.8833C133.829 89.6092 133.693 89.4722 133.419 89.1982C133.282 89.0612 133.282 89.0612 133.146 88.9242C132.872 88.6501 132.598 88.3761 132.462 88.2391L132.325 88.1021C132.051 87.828 131.778 87.554 131.504 87.2799L131.368 87.1429C131.094 86.8689 130.957 86.7319 130.684 86.5949C130.547 86.5949 130.547 86.4578 130.41 86.4578C130.274 86.3208 130 86.1838 129.863 85.9098C129.727 85.9098 129.727 85.7728 129.59 85.7728C129.453 85.6357 129.18 85.4987 129.043 85.2247L128.906 85.0877C128.633 84.9506 128.496 84.6766 128.222 84.5396C128.222 84.5396 128.086 84.5396 128.086 84.4026C127.949 84.2656 127.675 84.1285 127.539 83.9915C127.402 83.9915 127.402 83.8545 127.265 83.8545C127.128 83.7175 126.992 83.7175 126.855 83.5805C126.718 83.5805 126.718 83.4435 126.718 83.4435C126.581 83.3064 126.445 83.3064 126.308 83.1694L126.171 83.0324C126.034 82.8954 125.761 82.7584 125.624 82.7584C125.624 82.7584 125.487 82.7584 125.487 82.6214C125.351 82.6214 125.214 82.4843 125.077 82.4843C124.94 82.4843 124.94 82.3473 124.804 82.3473C124.667 82.3473 124.667 82.2103 124.53 82.2103C124.393 82.2103 124.393 82.0733 124.257 82.0733C124.257 82.0733 124.12 82.0733 124.12 81.9363C123.983 81.9363 123.983 81.9363 123.846 81.7993C123.846 81.7993 123.846 81.7993 123.71 81.7993C123.573 81.6622 123.299 81.6622 123.163 81.6622C128.496 84.9506 131.231 90.5684 131.231 99.7485Z" fill="#F2B90D"/>
<path d="M139.983 122.905L136.701 114.135L131.231 99.7486C131.231 96.8712 130.957 94.4049 130.41 92.2126C129.316 87.417 126.855 84.1286 123.436 82.0733C119.744 79.8811 114.684 78.9219 108.256 79.059L75.7093 79.333C72.017 79.333 68.735 80.5661 65.9999 82.6214C63.5384 84.4026 61.6239 87.006 60.3931 89.8833L41.9316 121.123C40.7008 123.179 41.7948 125.782 44.1196 126.33L57.7948 130.029L59.5726 180.863H131.914L134.376 144.827L136.291 141.95L138.479 138.662C141.214 134.003 141.897 128.111 139.983 122.905Z" fill="#F4C433"/>
<path opacity="0.27" d="M80.0854 115.369L81.3161 141.265L73.3845 134.825L80.0854 115.369Z" fill="#353535"/>
<path d="M142.718 66.5904C141.897 63.8501 140.12 61.6578 138.342 59.4655C139.983 55.629 140.12 50.0113 136.017 44.8047L130.957 39.735C130.957 38.5019 130.957 37.1317 130.821 35.8985C130.684 34.3913 130.41 32.8841 130 31.377L129.18 26.0333C127.402 14.3868 119.06 6.43979 104.701 8.63206L103.06 8.76908C101.556 8.49505 100.188 8.22101 98.6838 8.22101C95.265 8.08399 91.5727 8.76908 88.7009 10.5503C86.6496 11.7835 85.0086 13.5647 83.5043 15.4829C81.0428 11.3724 76.6667 8.63206 71.6069 8.63206C63.9488 8.63206 57.7949 14.7978 57.7949 22.4708C57.7949 29.1847 62.5812 34.8024 69.0086 36.0355C66.4103 38.0908 63.9488 40.1461 62.4445 43.0234C60.53 46.7229 59.983 51.1075 61.3505 55.081C62.3077 57.9583 64.2223 60.6987 63.5385 63.7131C63.1283 65.3573 61.8975 66.7274 61.077 68.0976C60.1197 69.4678 59.4359 71.249 59.983 72.8932C60.8035 74.9485 63.4018 75.6336 65.5898 75.7706C68.8718 76.0446 72.2906 75.9076 75.7095 75.7706C86.9231 75.3595 98.1368 74.9485 109.35 74.4004C112.359 77.4148 123.436 81.5253 123.436 81.5253L130.684 80.0181C133.556 79.7441 132.598 76.5927 132.325 72.7562C134.786 72.6192 137.248 72.3452 139.573 72.0711C140.393 71.9341 141.214 71.9341 141.897 71.5231C143.128 70.5639 143.128 68.3717 142.718 66.5904Z" fill="#390028"/>
<path d="M123.436 33.5692C122.342 33.7063 121.248 33.2952 120.564 32.6101L118.103 30.1438C117.145 30.2808 118.103 34.3913 117.145 34.5284C110.445 34.9394 104.154 33.2952 99.3677 30.2808C98.9574 36.7206 95.9489 41.7903 91.7095 42.4754L86.513 43.4345L83.6412 43.7085C79.6754 44.1196 76.8036 47.819 77.3506 51.6555C77.7608 55.629 81.4531 58.5064 85.2822 57.9583H85.419V84.2657C85.419 90.2944 90.342 95.0901 96.2224 95.0901H100.872C106.889 95.0901 111.675 90.1574 111.675 84.2657V75.6336C120.564 74.2634 126.855 66.0424 125.898 56.9992L123.436 33.5692Z" fill="#FFAC79"/>
<path opacity="0.32" d="M112.359 73.1673L108.53 73.5783C99.3675 74.6745 91.0256 68.0976 90.0683 58.9175L89.9315 57.4103L88.2905 57.5473L88.7008 61.2468C89.111 65.0833 90.7521 68.3717 93.2136 70.975C92.5298 75.9076 95.8119 80.7032 100.735 81.5253C105.248 82.3474 109.624 79.7441 111.128 75.6336C117.966 74.8115 123.299 70.1529 125.214 63.9871C122.889 68.9197 118.102 72.4822 112.359 73.1673Z" fill="#FF755F"/>
<path d="M82.4104 53.2998C82.1369 53.2998 82.0001 53.1628 81.8634 53.0257C81.5899 52.7517 81.7266 52.3407 82.0001 52.0666L84.0514 50.6964L81.7266 48.0931C81.4531 47.8191 81.4531 47.408 81.7266 47.134C82.0001 46.86 82.4104 46.86 82.6839 47.134L85.5557 50.2854C85.6924 50.4224 85.6924 50.6964 85.6924 50.8335C85.6924 50.9705 85.5557 51.2445 85.4189 51.3815L82.6839 53.1628C82.6839 53.2998 82.5471 53.2998 82.4104 53.2998Z" fill="#FF755F"/>
<path d="M111.265 71.3861C111.128 71.3861 110.855 71.3861 110.718 71.249C109.214 69.7419 107.162 70.564 107.162 70.701C106.752 70.838 106.479 70.701 106.205 70.4269C106.068 70.1529 106.205 69.7419 106.479 69.4678C106.615 69.4678 109.487 68.0976 111.675 70.2899C111.949 70.564 111.949 70.975 111.675 71.249C111.538 71.249 111.402 71.3861 111.265 71.3861Z" fill="#FF755F"/>
<path d="M111.402 54.2589C111.128 54.2589 110.855 53.9849 110.855 53.7108C110.855 53.4368 110.991 53.1628 111.265 53.1628L113.316 53.0258C114.41 52.8887 115.504 52.4777 116.325 51.7926C117.009 51.1075 117.419 50.1484 117.419 49.1893C117.419 48.9152 117.282 48.7782 117.145 48.7782C116.872 48.6412 116.598 48.5042 116.325 48.5042C114.957 48.6412 113.59 47.6821 113.453 46.4489L112.769 40.6942C112.769 40.4202 112.906 40.1461 113.18 40.1461C113.453 40.1461 113.727 40.2831 113.727 40.5572L114.41 46.3119C114.547 46.997 115.231 47.5451 116.188 47.5451C116.735 47.5451 117.282 47.6821 117.692 48.0931C118.103 48.3672 118.239 48.7782 118.239 49.1893C118.376 50.4224 117.829 51.6556 116.872 52.4777C115.915 53.4368 114.684 53.9849 113.316 53.9849L111.402 54.2589Z" fill="#FF755F"/>
<path d="M105.932 36.7207C105.385 36.5837 104.701 36.8577 104.154 36.9947C103.47 37.1317 102.923 37.2688 102.376 37.4058C101.829 37.5428 101.145 37.6798 100.598 37.6798C99.9147 37.8168 99.3676 37.8168 98.8206 38.2279C98.4104 38.5019 98.2736 39.187 98.9574 39.7351C99.6412 40.2831 101.145 40.8312 102.923 40.4202C104.701 40.0091 105.932 39.05 106.342 38.2279C106.889 37.4058 106.479 36.8577 105.932 36.7207Z" fill="#390028"/>
<path d="M118.376 38.3649C118.786 38.0909 119.333 38.0909 119.88 38.0909C120.427 38.0909 120.974 38.0909 121.521 37.9539C122.068 37.9539 122.615 37.8169 123.162 37.8169C123.71 37.8169 124.257 37.6799 124.667 37.8169C125.077 37.9539 125.351 38.502 124.804 39.05C124.393 39.7351 123.299 40.4202 121.658 40.5572C120.017 40.6942 118.786 40.1462 118.376 39.5981C117.829 39.1871 117.966 38.639 118.376 38.3649Z" fill="#390028"/>
<path d="M84.7602 56.449C85.6663 56.4327 86.3877 55.6835 86.3714 54.7756C86.3551 53.8678 85.6074 53.145 84.7012 53.1613C83.7951 53.1776 83.0737 53.9268 83.09 54.8347C83.1063 55.7426 83.854 56.4653 84.7602 56.449Z" fill="white"/>
<path d="M111.402 60.1507C108.804 60.1507 106.889 59.6026 105.795 58.3695C104.701 56.9993 104.974 55.4921 104.974 55.4921C104.974 55.2181 105.248 55.0811 105.521 55.0811C105.795 55.0811 105.932 55.3551 105.932 55.6291C105.932 55.6291 105.658 56.7253 106.479 57.6844C107.163 58.5065 108.94 59.4656 113.316 59.0546C113.59 59.0546 113.863 59.1916 113.863 59.4656C113.863 59.7396 113.727 60.0137 113.453 60.0137C112.769 60.1507 112.086 60.1507 111.402 60.1507Z" fill="#FF755F"/>
<path d="M126.171 45.6268C125.897 44.2566 125.077 42.3384 122.479 42.0643C122.068 42.0643 121.658 42.0643 121.248 42.0643C119.607 42.3384 118.513 43.8456 117.829 45.0787C117.556 45.6268 117.692 46.3119 118.103 46.8599C118.239 45.6268 119.333 44.6677 120.701 44.5306C122.205 44.3936 123.573 45.6268 123.573 46.997C123.573 47.134 123.573 47.271 123.573 47.271C124.393 47.134 124.94 47.134 125.487 46.997C125.897 46.8599 126.308 46.4489 126.171 45.9008C126.171 45.7638 126.171 45.7638 126.171 45.6268Z" fill="white"/>
<path d="M120.701 44.3937C119.334 44.5307 118.24 45.4898 118.103 46.723C118.376 46.997 118.65 47.134 118.923 47.134C120.564 47.4081 122.205 47.271 123.573 47.134C123.573 46.997 123.573 46.86 123.573 46.86C123.573 45.4898 122.205 44.3937 120.701 44.3937Z" fill="#390028"/>
<path d="M110.444 46.7229C110.171 45.0787 109.214 42.4754 105.795 42.0643C105.248 41.9273 104.701 42.0643 104.291 42.0643C102.103 42.4754 100.598 44.1196 99.6411 45.6268C98.9573 46.7229 99.641 48.2301 100.872 48.3671C101.145 48.3671 101.556 48.5041 101.829 48.5041C101.829 48.2301 101.692 48.0931 101.692 47.819C101.692 46.0378 103.197 44.5306 105.248 44.3936C107.299 44.3936 108.94 45.7638 108.94 47.545C108.94 47.819 108.94 48.0931 108.803 48.3671C108.94 48.3671 109.214 48.3671 109.35 48.2301C110.034 48.0931 110.444 47.545 110.444 46.9969C110.444 46.9969 110.444 46.8599 110.444 46.7229Z" fill="white"/>
<path d="M105.248 44.5306C103.197 44.5306 101.692 46.0378 101.692 47.9561C101.692 48.2301 101.692 48.5041 101.829 48.6411C104.564 48.9152 107.299 48.7782 108.803 48.6411C108.94 48.3671 108.94 48.0931 108.94 47.819C108.94 45.9008 107.299 44.3936 105.248 44.5306Z" fill="#390028"/>
<path d="M171.846 129.892L167.47 113.176L155.299 71.797C155.299 71.66 155.163 71.386 155.163 71.249L154.889 70.1528C153.521 66.7274 151.197 63.85 147.915 61.7948L138.479 56.1771L133.692 53.9848C132.325 53.2997 128.496 51.7925 127.128 54.1218C126.308 56.4511 129.59 57.8213 130.821 58.5064L137.522 61.7948C137.522 61.7948 134.239 61.3837 131.778 62.8909C130 63.9871 129.18 66.0423 129.59 68.0976L129.727 68.7827L130 68.6456C131.504 67.5495 133.282 67.0014 135.197 67.1385L137.248 67.2755C137.248 67.2755 130 66.7274 129.18 70.2898C128.359 73.8523 130 73.9893 130 73.9893C130 73.9893 133.692 71.797 136.701 73.4412C136.701 73.4412 126.992 72.0711 127.675 77.8258C128.086 81.3883 132.051 83.4435 135.06 84.5397L140.257 111.532C139.163 112.628 137.932 113.587 136.701 114.546L139.983 123.316C141.898 128.522 141.351 134.414 138.342 138.936L136.154 142.224L153.932 146.335C154.479 146.472 155.026 146.609 155.573 146.746L156.667 147.02V146.883C158.855 147.02 161.043 146.609 163.231 145.649C169.522 142.909 173.077 136.469 171.846 129.892ZM137.248 80.2921L136.974 80.4291L136.017 79.333L137.248 80.2921Z" fill="#FFAC79"/>
<path opacity="0.51" d="M136.427 91.6646L146.821 85.6358L135.06 84.5397" fill="#FF8970"/>
<path d="M138.205 74.2634C137.658 73.8523 136.974 73.5783 136.291 73.4413C135.607 73.3043 134.923 73.1673 134.103 73.1673C133.419 73.1673 132.598 73.3043 131.915 73.4413C131.231 73.5783 130.547 73.8523 129.863 74.2634C129.59 74.4004 129.316 74.2634 129.18 73.9894C129.043 73.7153 129.18 73.4413 129.453 73.3043C130.137 73.0302 130.957 72.7562 131.641 72.4822C132.462 72.3451 133.282 72.2081 133.966 72.2081C134.786 72.2081 135.607 72.3451 136.291 72.6192C137.111 72.8932 137.795 73.1672 138.479 73.7153C138.616 73.8523 138.752 74.1264 138.616 74.2634C138.616 74.4004 138.479 74.4004 138.205 74.2634Z" fill="#FF755F"/>
<path d="M137.932 67.5495C137.248 67.2755 136.564 67.1384 135.88 67.1384C135.197 67.1384 134.376 67.2755 133.692 67.4125C133.008 67.5495 132.325 67.8235 131.641 68.2346C130.957 68.6456 130.41 69.0567 129.863 69.4677C129.59 69.6048 129.316 69.6048 129.179 69.3307C129.043 69.0567 129.043 68.7827 129.316 68.6456C130 68.2346 130.547 67.6865 131.367 67.4125C132.051 67.0014 132.872 66.8644 133.555 66.5904C134.376 66.4534 135.197 66.3163 135.88 66.4534C136.701 66.4534 137.385 66.7274 138.205 67.0014C138.342 67.1385 138.479 67.2755 138.342 67.4125C138.342 67.5495 138.068 67.5495 137.932 67.5495Z" fill="#FF755F"/>
<path opacity="0.32" d="M140.12 111.121L145.453 129.892L138.615 112.628L140.12 111.121Z" fill="#FF755F"/>
<path d="M100.051 148.664L118.786 150.445C120.564 150.582 122.068 149.349 122.205 147.705L126.308 106.051C126.445 104.27 125.214 102.763 123.573 102.626L104.701 100.708C102.923 100.571 101.419 101.804 101.282 103.448L97.1796 145.101C97.0428 147.02 98.2736 148.527 100.051 148.664Z" fill="#390028"/>
<path opacity="0.47" d="M116.735 107.833L122.205 108.381C122.889 108.518 123.573 107.97 123.709 107.148C123.846 106.463 123.299 105.777 122.479 105.64L117.009 105.092C116.325 104.955 115.641 105.503 115.504 106.326C115.368 107.011 115.915 107.696 116.735 107.833Z" fill="#E1E2FE"/>
<path d="M122.807 107.141C122.845 106.764 122.571 106.428 122.195 106.391C121.819 106.353 121.484 106.628 121.447 107.004C121.409 107.381 121.683 107.716 122.059 107.754C122.435 107.792 122.77 107.517 122.807 107.141Z" fill="#390028"/>
<path d="M130 130.852C129.59 129.756 128.496 129.344 127.538 129.618L129.316 128.796C130.41 128.248 130.821 126.878 130.273 125.508C130 124.96 129.59 124.412 129.179 124.138C130.274 123.727 130.821 122.22 130.273 120.849C129.726 119.479 128.496 118.794 127.402 119.342L126.444 119.753C127.538 119.342 128.085 117.835 127.538 116.465C126.991 115.095 125.761 114.41 124.667 114.958L107.436 122.22C107.026 122.357 100.325 122.22 99.641 117.15L98.4103 118.931C97.0427 119.616 96.2222 121.808 95.4017 124.138C94.9914 125.371 94.5812 126.604 94.3077 127.837L73.7949 134.277L45.4872 126.741L33.7265 153.185C30.1709 162.503 35.641 173.19 45.7607 177.027C50.8205 178.945 56.0171 178.534 60.2564 176.341C61.6239 175.793 62.8547 175.108 64.0855 174.286L99.7778 149.76V149.623C109.761 150.719 124.667 137.565 126.855 135.236L129.316 134.003C130.137 133.318 130.547 132.085 130 130.852Z" fill="#FFAC79"/>
<path d="M118.239 123.727C117.966 123.727 117.829 123.59 117.692 123.316C117.556 122.905 117.692 122.494 118.103 122.357L126.855 118.794C127.265 118.657 127.539 118.794 127.812 119.205C127.949 119.616 127.812 120.027 127.402 120.164L118.65 123.727C118.513 123.727 118.376 123.727 118.239 123.727Z" fill="#FF755F"/>
<path d="M119.607 128.659C119.333 128.659 119.197 128.522 119.06 128.248C118.923 127.837 119.06 127.426 119.47 127.289L128.222 123.727C128.632 123.59 128.906 123.727 129.179 124.138C129.316 124.549 129.179 124.96 128.769 125.097L120.017 128.659C119.744 128.659 119.607 128.659 119.607 128.659Z" fill="#FF755F"/>
<path d="M119.607 134.14C119.333 134.14 119.197 134.003 119.06 133.729C118.923 133.318 119.06 132.907 119.333 132.77L127.949 128.796C128.359 128.659 128.769 128.796 128.906 129.07C129.043 129.481 128.906 129.892 128.632 130.029L120.017 134.003C119.744 134.14 119.607 134.14 119.607 134.14Z" fill="#FF755F"/>
<path opacity="0.28" d="M73.795 134.277L67.9146 132.633L51.6411 141.265L73.795 134.277Z" fill="#FF755F"/>
</svg>
